<svg width="32" height="47" viewBox="0 0 32 47" fill="none" xmlns="http://www.w3.org/2000/svg">
<path d="M31.5938 42.25V47H1.8125V42.8438L16.7188 26.25C18.5521 24.2083 19.9688 22.4792 20.9688 21.0625C21.9896 19.625 22.6979 18.3438 23.0938 17.2188C23.5104 16.0729 23.7188 14.9062 23.7188 13.7188C23.7188 12.2188 23.4062 10.8646 22.7812 9.65625C22.1771 8.42708 21.2812 7.44792 20.0938 6.71875C18.9062 5.98958 17.4688 5.625 15.7812 5.625C13.7604 5.625 12.0729 6.02083 10.7188 6.8125C9.38542 7.58333 8.38542 8.66667 7.71875 10.0625C7.05208 11.4583 6.71875 13.0625 6.71875 14.875H0.9375C0.9375 12.3125 1.5 9.96875 2.625 7.84375C3.75 5.71875 5.41667 4.03125 7.625 2.78125C9.83333 1.51042 12.5521 0.875 15.7812 0.875C18.6562 0.875 21.1146 1.38542 23.1562 2.40625C25.1979 3.40625 26.7604 4.82292 27.8438 6.65625C28.9479 8.46875 29.5 10.5938 29.5 13.0312C29.5 14.3646 29.2708 15.7188 28.8125 17.0938C28.375 18.4479 27.7604 19.8021 26.9688 21.1562C26.1979 22.5104 25.2917 23.8438 24.25 25.1562C23.2292 26.4688 22.1354 27.7604 20.9688 29.0312L8.78125 42.25H31.5938Z" fill="url(#paint0_linear_135_696)"/>
<defs>
<linearGradient id="paint0_linear_135_696" x1="16" y1="-13" x2="16" y2="64" gradientUnits="userSpaceOnUse">
<stop stop-color="#3ADFFD"/>
<stop offset="1" stop-color="#614EFD"/>
</linearGradient>
</defs>
</svg>
