<svg width="29" height="47" viewBox="0 0 29 47" fill="none" xmlns="http://www.w3.org/2000/svg">
<path d="M21.9103 0.4375H22.4103V5.34375H21.9103C18.8478 5.34375 16.2853 5.84375 14.2228 6.84375C12.1603 7.82292 10.5249 9.14583 9.31653 10.8125C8.10819 12.4583 7.23319 14.3125 6.69153 16.375C6.17069 18.4375 5.91028 20.5312 5.91028 22.6562V29.3438C5.91028 31.3646 6.14986 33.1562 6.62903 34.7188C7.10819 36.2604 7.76444 37.5625 8.59778 38.625C9.43111 39.6875 10.3686 40.4896 11.4103 41.0312C12.4728 41.5729 13.5769 41.8438 14.7228 41.8438C16.0561 41.8438 17.2436 41.5938 18.2853 41.0938C19.3269 40.5729 20.2019 39.8542 20.9103 38.9375C21.6394 38 22.1915 36.8958 22.5665 35.625C22.9415 34.3542 23.129 32.9583 23.129 31.4375C23.129 30.0833 22.9624 28.7812 22.629 27.5312C22.2957 26.2604 21.7853 25.1354 21.0978 24.1562C20.4103 23.1562 19.5457 22.375 18.504 21.8125C17.4832 21.2292 16.2644 20.9375 14.8478 20.9375C13.2436 20.9375 11.7436 21.3333 10.3478 22.125C8.97278 22.8958 7.83736 23.9167 6.94153 25.1875C6.06653 26.4375 5.56653 27.8021 5.44153 29.2812L2.37903 29.25C2.67069 26.9167 3.21236 24.9271 4.00403 23.2812C4.81653 21.6146 5.81653 20.2604 7.00403 19.2188C8.21236 18.1562 9.55611 17.3854 11.0353 16.9062C12.5353 16.4062 14.1186 16.1562 15.7853 16.1562C18.0561 16.1562 20.0144 16.5833 21.6603 17.4375C23.3061 18.2917 24.6603 19.4375 25.7228 20.875C26.7853 22.2917 27.5665 23.8958 28.0665 25.6875C28.5874 27.4583 28.8478 29.2812 28.8478 31.1562C28.8478 33.3021 28.5457 35.3125 27.9415 37.1875C27.3374 39.0625 26.4311 40.7083 25.2228 42.125C24.0353 43.5417 22.5665 44.6458 20.8165 45.4375C19.0665 46.2292 17.0353 46.625 14.7228 46.625C12.2644 46.625 10.1186 46.125 8.28528 45.125C6.45194 44.1042 4.93111 42.75 3.72278 41.0625C2.51444 39.375 1.60819 37.5 1.00403 35.4375C0.399862 33.375 0.0977783 31.2812 0.0977783 29.1562V26.4375C0.0977783 23.2292 0.420695 20.0833 1.06653 17C1.71236 13.9167 2.82694 11.125 4.41028 8.625C6.01444 6.125 8.23319 4.13542 11.0665 2.65625C13.8999 1.17708 17.5144 0.4375 21.9103 0.4375Z" fill="url(#paint0_linear_135_701)"/>
<defs>
<linearGradient id="paint0_linear_135_701" x1="13.9415" y1="-14" x2="13.9415" y2="63" gradientUnits="userSpaceOnUse">
<stop stop-color="#3ADFFD"/>
<stop offset="1" stop-color="#614EFD"/>
</linearGradient>
</defs>
</svg>
