<svg width="30" height="48" viewBox="0 0 30 48" fill="none" xmlns="http://www.w3.org/2000/svg">
<path d="M29.1615 34.6875C29.1615 37.4583 28.5157 39.8125 27.224 41.75C25.9532 43.6667 24.224 45.125 22.0365 46.125C19.8699 47.125 17.4219 47.625 14.6928 47.625C11.9636 47.625 9.50528 47.125 7.31778 46.125C5.13028 45.125 3.40111 43.6667 2.13028 41.75C0.859446 39.8125 0.22403 37.4583 0.22403 34.6875C0.22403 32.875 0.56778 31.2188 1.25528 29.7188C1.96361 28.1979 2.9532 26.875 4.22403 25.75C5.5157 24.625 7.03653 23.7604 8.78653 23.1562C10.5574 22.5312 12.5053 22.2188 14.6303 22.2188C17.4219 22.2188 19.9115 22.7604 22.099 23.8438C24.2865 24.9062 26.0053 26.375 27.2553 28.25C28.5261 30.125 29.1615 32.2708 29.1615 34.6875ZM23.349 34.5625C23.349 32.875 22.9844 31.3854 22.2553 30.0938C21.5261 28.7812 20.5053 27.7604 19.1928 27.0312C17.8803 26.3021 16.3594 25.9375 14.6303 25.9375C12.8594 25.9375 11.3282 26.3021 10.0365 27.0312C8.7657 27.7604 7.77611 28.7812 7.06778 30.0938C6.35945 31.3854 6.00528 32.875 6.00528 34.5625C6.00528 36.3125 6.34903 37.8125 7.03653 39.0625C7.74486 40.2917 8.74486 41.2396 10.0365 41.9062C11.349 42.5521 12.9011 42.875 14.6928 42.875C16.4844 42.875 18.0261 42.5521 19.3178 41.9062C20.6094 41.2396 21.599 40.2917 22.2865 39.0625C22.9949 37.8125 23.349 36.3125 23.349 34.5625ZM28.099 13.3438C28.099 15.5521 27.5157 17.5417 26.349 19.3125C25.1824 21.0833 23.5886 22.4792 21.5678 23.5C19.5469 24.5208 17.2553 25.0312 14.6928 25.0312C12.0886 25.0312 9.7657 24.5208 7.72403 23.5C5.7032 22.4792 4.11986 21.0833 2.97403 19.3125C1.8282 17.5417 1.25528 15.5521 1.25528 13.3438C1.25528 10.6979 1.8282 8.44792 2.97403 6.59375C4.1407 4.73958 5.73445 3.32292 7.75528 2.34375C9.77611 1.36458 12.0782 0.875 14.6615 0.875C17.2657 0.875 19.5782 1.36458 21.599 2.34375C23.6199 3.32292 25.2032 4.73958 26.349 6.59375C27.5157 8.44792 28.099 10.6979 28.099 13.3438ZM22.3178 13.4375C22.3178 11.9167 21.9949 10.5729 21.349 9.40625C20.7032 8.23958 19.8074 7.32292 18.6615 6.65625C17.5157 5.96875 16.1824 5.625 14.6615 5.625C13.1407 5.625 11.8074 5.94792 10.6615 6.59375C9.53653 7.21875 8.65111 8.11458 8.00528 9.28125C7.38028 10.4479 7.06778 11.8333 7.06778 13.4375C7.06778 15 7.38028 16.3646 8.00528 17.5312C8.65111 18.6979 9.54695 19.6042 10.6928 20.25C11.8386 20.8958 13.1719 21.2188 14.6928 21.2188C16.2136 21.2188 17.5365 20.8958 18.6615 20.25C19.8074 19.6042 20.7032 18.6979 21.349 17.5312C21.9949 16.3646 22.3178 15 22.3178 13.4375Z" fill="url(#paint0_linear_135_703)"/>
<defs>
<linearGradient id="paint0_linear_135_703" x1="14.6928" y1="-13" x2="14.6928" y2="64" gradientUnits="userSpaceOnUse">
<stop stop-color="#3ADFFD"/>
<stop offset="1" stop-color="#614EFD"/>
</linearGradient>
</defs>
</svg>
