<svg width="10" height="129" viewBox="0 0 10 129" fill="none" xmlns="http://www.w3.org/2000/svg">
<path d="M5.5 127.017C5.5 126.741 5.27614 126.517 5 126.517C4.72386 126.517 4.5 126.741 4.5 127.017L5.5 127.017ZM4.5 123.05C4.5 123.326 4.72386 123.55 5 123.55C5.27614 123.55 5.5 123.326 5.5 123.05L4.5 123.05ZM5.5 119.083C5.5 118.807 5.27614 118.583 5 118.583C4.72386 118.583 4.5 118.807 4.5 119.083L5.5 119.083ZM4.5 115.117C4.5 115.393 4.72386 115.617 5 115.617C5.27614 115.617 5.5 115.393 5.5 115.117L4.5 115.117ZM5.5 111.15C5.5 110.874 5.27614 110.65 5 110.65C4.72386 110.65 4.5 110.874 4.5 111.15L5.5 111.15ZM4.5 107.183C4.5 107.459 4.72386 107.683 5 107.683C5.27614 107.683 5.5 107.459 5.5 107.183L4.5 107.183ZM5.5 103.217C5.5 102.941 5.27614 102.717 5 102.717C4.72386 102.717 4.5 102.941 4.5 103.217L5.5 103.217ZM4.5 99.25C4.5 99.5261 4.72386 99.75 5 99.75C5.27614 99.75 5.5 99.5261 5.5 99.25L4.5 99.25ZM5.5 95.2833C5.5 95.0072 5.27614 94.7833 5 94.7833C4.72386 94.7833 4.5 95.0072 4.5 95.2833L5.5 95.2833ZM4.5 91.3167C4.5 91.5928 4.72386 91.8167 5 91.8167C5.27614 91.8167 5.5 91.5928 5.5 91.3167L4.5 91.3167ZM5.5 87.35C5.5 87.0739 5.27614 86.85 5 86.85C4.72386 86.85 4.5 87.0739 4.5 87.35L5.5 87.35ZM4.5 83.3833C4.5 83.6595 4.72386 83.8833 5 83.8833C5.27614 83.8833 5.5 83.6595 5.5 83.3833L4.5 83.3833ZM5.5 79.4167C5.5 79.1405 5.27614 78.9167 5 78.9167C4.72386 78.9167 4.5 79.1405 4.5 79.4167L5.5 79.4167ZM4.5 75.45C4.5 75.7261 4.72386 75.95 5 75.95C5.27614 75.95 5.5 75.7261 5.5 75.45L4.5 75.45ZM5.5 71.4833C5.5 71.2072 5.27615 70.9833 5 70.9833C4.72386 70.9833 4.5 71.2072 4.5 71.4833L5.5 71.4833ZM4.5 67.5167C4.5 67.7928 4.72386 68.0167 5 68.0167C5.27615 68.0167 5.5 67.7928 5.5 67.5167L4.5 67.5167ZM5.5 63.55C5.5 63.2739 5.27615 63.05 5 63.05C4.72386 63.05 4.5 63.2739 4.5 63.55L5.5 63.55ZM4.5 59.5833C4.5 59.8595 4.72386 60.0833 5 60.0833C5.27615 60.0833 5.5 59.8595 5.5 59.5833L4.5 59.5833ZM5.5 55.6167C5.5 55.3405 5.27615 55.1167 5 55.1167C4.72386 55.1167 4.5 55.3405 4.5 55.6167L5.5 55.6167ZM4.5 51.65C4.5 51.9261 4.72386 52.15 5 52.15C5.27615 52.15 5.5 51.9261 5.5 51.65L4.5 51.65ZM5.5 47.6833C5.5 47.4072 5.27615 47.1833 5 47.1833C4.72386 47.1833 4.5 47.4072 4.5 47.6833L5.5 47.6833ZM4.5 43.7167C4.5 43.9928 4.72386 44.2167 5 44.2167C5.27615 44.2167 5.5 43.9928 5.5 43.7167L4.5 43.7167ZM5.5 39.75C5.5 39.4739 5.27615 39.25 5 39.25C4.72386 39.25 4.5 39.4739 4.5 39.75L5.5 39.75ZM4.5 35.7833C4.5 36.0595 4.72386 36.2833 5 36.2833C5.27615 36.2833 5.5 36.0595 5.5 35.7833L4.5 35.7833ZM5.5 31.8167C5.5 31.5405 5.27615 31.3167 5 31.3167C4.72386 31.3167 4.5 31.5405 4.5 31.8167L5.5 31.8167ZM4.5 27.85C4.5 28.1261 4.72386 28.35 5 28.35C5.27615 28.35 5.5 28.1261 5.5 27.85L4.5 27.85ZM5.50001 23.8833C5.50001 23.6072 5.27615 23.3833 5.00001 23.3833C4.72386 23.3833 4.50001 23.6072 4.50001 23.8833L5.50001 23.8833ZM4.50001 19.9167C4.50001 20.1928 4.72386 20.4167 5.00001 20.4167C5.27615 20.4167 5.50001 20.1928 5.50001 19.9167L4.50001 19.9167ZM5.50001 15.95C5.50001 15.6739 5.27615 15.45 5.00001 15.45C4.72386 15.45 4.50001 15.6739 4.50001 15.95L5.50001 15.95ZM4.50001 11.9833C4.50001 12.2595 4.72386 12.4833 5.00001 12.4833C5.27615 12.4833 5.50001 12.2595 5.50001 11.9833L4.50001 11.9833ZM5.5 129L5.5 127.017L4.5 127.017L4.5 129L5.5 129ZM5.5 123.05L5.5 119.083L4.5 119.083L4.5 123.05L5.5 123.05ZM5.5 115.117L5.5 111.15L4.5 111.15L4.5 115.117L5.5 115.117ZM5.5 107.183L5.5 103.217L4.5 103.217L4.5 107.183L5.5 107.183ZM5.5 99.25L5.5 95.2833L4.5 95.2833L4.5 99.25L5.5 99.25ZM5.5 91.3167L5.5 87.35L4.5 87.35L4.5 91.3167L5.5 91.3167ZM5.5 83.3833L5.5 79.4167L4.5 79.4167L4.5 83.3833L5.5 83.3833ZM5.5 75.45L5.5 71.4833L4.5 71.4833L4.5 75.45L5.5 75.45ZM5.5 67.5167L5.5 63.55L4.5 63.55L4.5 67.5167L5.5 67.5167ZM5.5 59.5833L5.5 55.6167L4.5 55.6167L4.5 59.5833L5.5 59.5833ZM5.5 51.65L5.5 47.6833L4.5 47.6833L4.5 51.65L5.5 51.65ZM5.5 43.7167L5.5 39.75L4.5 39.75L4.5 43.7167L5.5 43.7167ZM5.5 35.7833L5.5 31.8167L4.5 31.8167L4.5 35.7833L5.5 35.7833ZM5.5 27.85L5.50001 23.8833L4.50001 23.8833L4.5 27.85L5.5 27.85ZM5.50001 19.9167L5.50001 15.95L4.50001 15.95L4.50001 19.9167L5.50001 19.9167ZM5.50001 11.9833L5.50001 10L4.50001 10L4.50001 11.9833L5.50001 11.9833Z" fill="#614EFD" fill-opacity="0.5"/>
<circle cx="5" cy="5" r="5" fill="#614EFD"/>
</svg>
