<svg width="10" height="141" viewBox="0 0 10 141" fill="none" xmlns="http://www.w3.org/2000/svg">
<path d="M5.5 138.953C5.5 138.677 5.27614 138.453 5 138.453C4.72386 138.453 4.5 138.677 4.5 138.953L5.5 138.953ZM4.5 134.859C4.5 135.136 4.72386 135.359 5 135.359C5.27614 135.359 5.5 135.136 5.5 134.859L4.5 134.859ZM5.5 130.766C5.5 130.489 5.27614 130.266 5 130.266C4.72386 130.266 4.5 130.489 4.5 130.766L5.5 130.766ZM4.5 126.672C4.5 126.948 4.72386 127.172 5 127.172C5.27614 127.172 5.5 126.948 5.5 126.672L4.5 126.672ZM5.5 122.578C5.5 122.302 5.27614 122.078 5 122.078C4.72386 122.078 4.5 122.302 4.5 122.578L5.5 122.578ZM4.5 118.484C4.5 118.761 4.72386 118.984 5 118.984C5.27614 118.984 5.5 118.761 5.5 118.484L4.5 118.484ZM5.5 114.391C5.5 114.114 5.27614 113.891 5 113.891C4.72386 113.891 4.5 114.114 4.5 114.391L5.5 114.391ZM4.5 110.297C4.5 110.573 4.72386 110.797 5 110.797C5.27614 110.797 5.5 110.573 5.5 110.297L4.5 110.297ZM5.5 106.203C5.5 105.927 5.27614 105.703 5 105.703C4.72386 105.703 4.5 105.927 4.5 106.203L5.5 106.203ZM4.5 102.109C4.5 102.386 4.72386 102.609 5 102.609C5.27614 102.609 5.5 102.386 5.5 102.109L4.5 102.109ZM5.5 98.0156C5.5 97.7395 5.27614 97.5156 5 97.5156C4.72386 97.5156 4.5 97.7395 4.5 98.0156L5.5 98.0156ZM4.5 93.9219C4.5 94.198 4.72386 94.4219 5 94.4219C5.27614 94.4219 5.5 94.198 5.5 93.9219L4.5 93.9219ZM5.5 89.8281C5.5 89.552 5.27614 89.3281 5 89.3281C4.72386 89.3281 4.5 89.552 4.5 89.8281L5.5 89.8281ZM4.5 85.7344C4.5 86.0105 4.72386 86.2344 5 86.2344C5.27614 86.2344 5.5 86.0105 5.5 85.7344L4.5 85.7344ZM5.5 81.6406C5.5 81.3645 5.27614 81.1406 5 81.1406C4.72386 81.1406 4.5 81.3645 4.5 81.6406L5.5 81.6406ZM4.5 77.5469C4.5 77.823 4.72386 78.0469 5 78.0469C5.27615 78.0469 5.5 77.823 5.5 77.5469L4.5 77.5469ZM5.5 73.4531C5.5 73.177 5.27615 72.9531 5 72.9531C4.72386 72.9531 4.5 73.177 4.5 73.4531L5.5 73.4531ZM4.5 69.3594C4.5 69.6355 4.72386 69.8594 5 69.8594C5.27615 69.8594 5.5 69.6355 5.5 69.3594L4.5 69.3594ZM5.5 65.2656C5.5 64.9895 5.27615 64.7656 5 64.7656C4.72386 64.7656 4.5 64.9895 4.5 65.2656L5.5 65.2656ZM4.5 61.1719C4.5 61.448 4.72386 61.6719 5 61.6719C5.27615 61.6719 5.5 61.448 5.5 61.1719L4.5 61.1719ZM5.5 57.0781C5.5 56.802 5.27615 56.5781 5 56.5781C4.72386 56.5781 4.5 56.802 4.5 57.0781L5.5 57.0781ZM4.5 52.9844C4.5 53.2605 4.72386 53.4844 5 53.4844C5.27615 53.4844 5.5 53.2605 5.5 52.9844L4.5 52.9844ZM5.5 48.8906C5.5 48.6145 5.27615 48.3906 5 48.3906C4.72386 48.3906 4.5 48.6145 4.5 48.8906L5.5 48.8906ZM4.5 44.7969C4.5 45.073 4.72386 45.2969 5 45.2969C5.27615 45.2969 5.5 45.073 5.5 44.7969L4.5 44.7969ZM5.5 40.7031C5.5 40.427 5.27615 40.2031 5 40.2031C4.72386 40.2031 4.5 40.427 4.5 40.7031L5.5 40.7031ZM4.5 36.6094C4.5 36.8855 4.72386 37.1094 5 37.1094C5.27615 37.1094 5.5 36.8855 5.5 36.6094L4.5 36.6094ZM5.5 32.5156C5.5 32.2395 5.27615 32.0156 5 32.0156C4.72386 32.0156 4.5 32.2395 4.5 32.5156L5.5 32.5156ZM4.5 28.4219C4.5 28.698 4.72386 28.9219 5 28.9219C5.27615 28.9219 5.5 28.698 5.5 28.4219L4.5 28.4219ZM5.50001 24.3281C5.50001 24.052 5.27615 23.8281 5.00001 23.8281C4.72386 23.8281 4.50001 24.052 4.50001 24.3281L5.50001 24.3281ZM4.50001 20.2344C4.50001 20.5105 4.72386 20.7344 5.00001 20.7344C5.27615 20.7344 5.50001 20.5105 5.50001 20.2344L4.50001 20.2344ZM5.50001 16.1406C5.50001 15.8645 5.27615 15.6406 5.00001 15.6406C4.72386 15.6406 4.50001 15.8645 4.50001 16.1406L5.50001 16.1406ZM4.50001 12.0469C4.50001 12.323 4.72386 12.5469 5.00001 12.5469C5.27615 12.5469 5.50001 12.323 5.50001 12.0469L4.50001 12.0469ZM5.5 141L5.5 138.953L4.5 138.953L4.5 141L5.5 141ZM5.5 134.859L5.5 130.766L4.5 130.766L4.5 134.859L5.5 134.859ZM5.5 126.672L5.5 122.578L4.5 122.578L4.5 126.672L5.5 126.672ZM5.5 118.484L5.5 114.391L4.5 114.391L4.5 118.484L5.5 118.484ZM5.5 110.297L5.5 106.203L4.5 106.203L4.5 110.297L5.5 110.297ZM5.5 102.109L5.5 98.0156L4.5 98.0156L4.5 102.109L5.5 102.109ZM5.5 93.9219L5.5 89.8281L4.5 89.8281L4.5 93.9219L5.5 93.9219ZM5.5 85.7344L5.5 81.6406L4.5 81.6406L4.5 85.7344L5.5 85.7344ZM5.5 77.5469L5.5 73.4531L4.5 73.4531L4.5 77.5469L5.5 77.5469ZM5.5 69.3594L5.5 65.2656L4.5 65.2656L4.5 69.3594L5.5 69.3594ZM5.5 61.1719L5.5 57.0781L4.5 57.0781L4.5 61.1719L5.5 61.1719ZM5.5 52.9844L5.5 48.8906L4.5 48.8906L4.5 52.9844L5.5 52.9844ZM5.5 44.7969L5.5 40.7031L4.5 40.7031L4.5 44.7969L5.5 44.7969ZM5.5 36.6094L5.5 32.5156L4.5 32.5156L4.5 36.6094L5.5 36.6094ZM5.5 28.4219L5.50001 24.3281L4.50001 24.3281L4.5 28.4219L5.5 28.4219ZM5.50001 20.2344L5.50001 16.1406L4.50001 16.1406L4.50001 20.2344L5.50001 20.2344ZM5.50001 12.0469L5.50001 9.99999L4.50001 9.99999L4.50001 12.0469L5.50001 12.0469Z" fill="#614EFD" fill-opacity="0.5"/>
<circle cx="5" cy="5" r="5" fill="#614EFD"/>
</svg>
