<svg width="10" height="219" viewBox="0 0 10 219" fill="none" xmlns="http://www.w3.org/2000/svg">
<path d="M5.5 217.009C5.5 216.733 5.27614 216.509 5 216.509C4.72386 216.509 4.5 216.733 4.5 217.009H5.5ZM4.5 213.028C4.5 213.304 4.72386 213.528 5 213.528C5.27614 213.528 5.5 213.304 5.5 213.028H4.5ZM5.5 209.046C5.5 208.77 5.27614 208.546 5 208.546C4.72386 208.546 4.5 208.77 4.5 209.046H5.5ZM4.5 205.065C4.5 205.341 4.72386 205.565 5 205.565C5.27614 205.565 5.5 205.341 5.5 205.065H4.5ZM5.5 201.083C5.5 200.807 5.27614 200.583 5 200.583C4.72386 200.583 4.5 200.807 4.5 201.083H5.5ZM4.5 197.102C4.5 197.378 4.72386 197.602 5 197.602C5.27614 197.602 5.5 197.378 5.5 197.102H4.5ZM5.5 193.12C5.5 192.844 5.27614 192.62 5 192.62C4.72386 192.62 4.5 192.844 4.5 193.12H5.5ZM4.5 189.139C4.5 189.415 4.72386 189.639 5 189.639C5.27614 189.639 5.5 189.415 5.5 189.139H4.5ZM5.5 185.157C5.5 184.881 5.27614 184.657 5 184.657C4.72386 184.657 4.5 184.881 4.5 185.157H5.5ZM4.5 181.176C4.5 181.452 4.72386 181.676 5 181.676C5.27614 181.676 5.5 181.452 5.5 181.176H4.5ZM5.5 177.194C5.5 176.918 5.27614 176.694 5 176.694C4.72386 176.694 4.5 176.918 4.5 177.194H5.5ZM4.5 173.213C4.5 173.489 4.72386 173.713 5 173.713C5.27614 173.713 5.5 173.489 5.5 173.213H4.5ZM5.5 169.231C5.5 168.955 5.27614 168.731 5 168.731C4.72386 168.731 4.5 168.955 4.5 169.231H5.5ZM4.5 165.25C4.5 165.526 4.72386 165.75 5 165.75C5.27614 165.75 5.5 165.526 5.5 165.25H4.5ZM5.5 161.269C5.5 160.992 5.27614 160.769 5 160.769C4.72386 160.769 4.5 160.992 4.5 161.269H5.5ZM4.5 157.287C4.5 157.563 4.72386 157.787 5 157.787C5.27614 157.787 5.5 157.563 5.5 157.287H4.5ZM5.5 153.306C5.5 153.029 5.27614 152.806 5 152.806C4.72386 152.806 4.5 153.029 4.5 153.306H5.5ZM4.5 149.324C4.5 149.6 4.72386 149.824 5 149.824C5.27614 149.824 5.5 149.6 5.5 149.324H4.5ZM5.5 145.343C5.5 145.066 5.27614 144.843 5 144.843C4.72386 144.843 4.5 145.066 4.5 145.343H5.5ZM4.5 141.361C4.5 141.637 4.72386 141.861 5 141.861C5.27614 141.861 5.5 141.637 5.5 141.361H4.5ZM5.5 137.38C5.5 137.103 5.27614 136.88 5 136.88C4.72386 136.88 4.5 137.103 4.5 137.38H5.5ZM4.5 133.398C4.5 133.674 4.72386 133.898 5 133.898C5.27614 133.898 5.5 133.674 5.5 133.398H4.5ZM5.5 129.417C5.5 129.141 5.27614 128.917 5 128.917C4.72386 128.917 4.5 129.141 4.5 129.417H5.5ZM4.5 125.435C4.5 125.711 4.72386 125.935 5 125.935C5.27614 125.935 5.5 125.711 5.5 125.435H4.5ZM5.5 121.454C5.5 121.178 5.27614 120.954 5 120.954C4.72386 120.954 4.5 121.178 4.5 121.454H5.5ZM4.5 117.472C4.5 117.748 4.72386 117.972 5 117.972C5.27614 117.972 5.5 117.748 5.5 117.472H4.5ZM5.5 113.491C5.5 113.215 5.27614 112.991 5 112.991C4.72386 112.991 4.5 113.215 4.5 113.491H5.5ZM4.5 109.509C4.5 109.785 4.72386 110.009 5 110.009C5.27614 110.009 5.5 109.785 5.5 109.509H4.5ZM5.5 105.528C5.5 105.252 5.27614 105.028 5 105.028C4.72386 105.028 4.5 105.252 4.5 105.528H5.5ZM4.5 101.546C4.5 101.822 4.72386 102.046 5 102.046C5.27614 102.046 5.5 101.822 5.5 101.546H4.5ZM5.5 97.5648C5.5 97.2886 5.27614 97.0648 5 97.0648C4.72386 97.0648 4.5 97.2886 4.5 97.5648H5.5ZM4.5 93.5833C4.5 93.8594 4.72386 94.0833 5 94.0833C5.27614 94.0833 5.5 93.8594 5.5 93.5833H4.5ZM5.5 89.6018C5.5 89.3257 5.27614 89.1018 5 89.1018C4.72386 89.1018 4.5 89.3257 4.5 89.6018H5.5ZM4.5 85.6203C4.5 85.8965 4.72386 86.1203 5 86.1203C5.27614 86.1203 5.5 85.8965 5.5 85.6203H4.5ZM5.5 81.6389C5.5 81.3627 5.27614 81.1389 5 81.1389C4.72386 81.1389 4.5 81.3627 4.5 81.6389H5.5ZM4.5 77.6574C4.5 77.9335 4.72386 78.1574 5 78.1574C5.27614 78.1574 5.5 77.9335 5.5 77.6574H4.5ZM5.5 73.6759C5.5 73.3998 5.27614 73.1759 5 73.1759C4.72386 73.1759 4.5 73.3998 4.5 73.6759H5.5ZM4.5 69.6944C4.5 69.9706 4.72386 70.1944 5 70.1944C5.27614 70.1944 5.5 69.9706 5.5 69.6944H4.5ZM5.5 65.713C5.5 65.4368 5.27614 65.213 5 65.213C4.72386 65.213 4.5 65.4368 4.5 65.713H5.5ZM4.5 61.7315C4.5 62.0076 4.72386 62.2315 5 62.2315C5.27614 62.2315 5.5 62.0076 5.5 61.7315H4.5ZM5.5 57.75C5.5 57.4739 5.27614 57.25 5 57.25C4.72386 57.25 4.5 57.4739 4.5 57.75H5.5ZM4.5 53.7685C4.5 54.0447 4.72386 54.2685 5 54.2685C5.27614 54.2685 5.5 54.0447 5.5 53.7685H4.5ZM5.5 49.7871C5.5 49.5109 5.27614 49.2871 5 49.2871C4.72386 49.2871 4.5 49.5109 4.5 49.7871H5.5ZM4.5 45.8056C4.5 46.0817 4.72386 46.3056 5 46.3056C5.27614 46.3056 5.5 46.0817 5.5 45.8056H4.5ZM5.5 41.8241C5.5 41.548 5.27614 41.3241 5 41.3241C4.72386 41.3241 4.5 41.548 4.5 41.8241H5.5ZM4.5 37.8426C4.5 38.1188 4.72386 38.3426 5 38.3426C5.27614 38.3426 5.5 38.1188 5.5 37.8426H4.5ZM5.5 33.8612C5.5 33.585 5.27614 33.3612 5 33.3612C4.72386 33.3612 4.5 33.585 4.5 33.8612H5.5ZM4.5 29.8797C4.5 30.1558 4.72386 30.3797 5 30.3797C5.27614 30.3797 5.5 30.1558 5.5 29.8797H4.5ZM5.5 25.8982C5.5 25.6221 5.27614 25.3982 5 25.3982C4.72386 25.3982 4.5 25.6221 4.5 25.8982H5.5ZM4.5 21.9167C4.5 22.1929 4.72386 22.4167 5 22.4167C5.27614 22.4167 5.5 22.1929 5.5 21.9167H4.5ZM5.5 17.9353C5.5 17.6591 5.27614 17.4353 5 17.4353C4.72386 17.4353 4.5 17.6591 4.5 17.9353H5.5ZM4.5 13.9538C4.5 14.2299 4.72386 14.4538 5 14.4538C5.27614 14.4538 5.5 14.2299 5.5 13.9538H4.5ZM5.5 9.9723C5.5 9.69616 5.27614 9.4723 5 9.4723C4.72386 9.4723 4.5 9.69616 4.5 9.9723H5.5ZM4.5 5.99084C4.5 6.26698 4.72386 6.49084 5 6.49084C5.27614 6.49084 5.5 6.26698 5.5 5.99084H4.5ZM5.5 219V217.009H4.5V219H5.5ZM5.5 213.028L5.5 209.046H4.5L4.5 213.028H5.5ZM5.5 205.065V201.083H4.5V205.065H5.5ZM5.5 197.102L5.5 193.12H4.5V197.102H5.5ZM5.5 189.139V185.157H4.5V189.139H5.5ZM5.5 181.176V177.194H4.5V181.176H5.5ZM5.5 173.213V169.231H4.5L4.5 173.213H5.5ZM5.5 165.25V161.269H4.5V165.25H5.5ZM5.5 157.287V153.306H4.5V157.287H5.5ZM5.5 149.324V145.343H4.5V149.324H5.5ZM5.5 141.361L5.5 137.38H4.5L4.5 141.361H5.5ZM5.5 133.398V129.417H4.5V133.398H5.5ZM5.5 125.435L5.5 121.454H4.5L4.5 125.435H5.5ZM5.5 117.472V113.491H4.5V117.472H5.5ZM5.5 109.509V105.528H4.5V109.509H5.5ZM5.5 101.546V97.5648H4.5V101.546H5.5ZM5.5 93.5833V89.6018H4.5V93.5833H5.5ZM5.5 85.6203L5.5 81.6389H4.5L4.5 85.6203H5.5ZM5.5 77.6574V73.6759H4.5V77.6574H5.5ZM5.5 69.6944L5.5 65.713H4.5L4.5 69.6944H5.5ZM5.5 61.7315V57.75H4.5V61.7315H5.5ZM5.5 53.7685L5.5 49.7871H4.5L4.5 53.7685H5.5ZM5.5 45.8056V41.8241H4.5V45.8056H5.5ZM5.5 37.8426L5.5 33.8612H4.5L4.5 37.8426H5.5ZM5.5 29.8797V25.8982H4.5V29.8797H5.5ZM5.5 21.9167V17.9353H4.5V21.9167H5.5ZM5.5 13.9538V9.9723H4.5V13.9538H5.5ZM5.5 5.99084V4H4.5V5.99084H5.5Z" fill="#614EFD" fill-opacity="0.5"/>
<path d="M10 5C10 7.76142 7.76142 10 5 10C2.23858 10 0 7.76142 0 5C0 2.23858 2.23858 0 5 0C7.76142 0 10 2.23858 10 5Z" fill="#614EFD"/>
</svg>
