<svg width="104" height="99" viewBox="0 0 104 99" fill="none" xmlns="http://www.w3.org/2000/svg">
<path fill-rule="evenodd" clip-rule="evenodd" d="M72.6284 61.7362C69.156 61.7362 66.3411 64.5511 66.3411 68.0235C66.3411 71.4959 69.156 74.3108 72.6284 74.3108C76.1008 74.3108 78.9157 71.4959 78.9157 68.0235C78.9157 64.5511 76.1008 61.7362 72.6284 61.7362ZM62.7953 68.0235C62.7953 62.5928 67.1977 58.1904 72.6284 58.1904C78.059 58.1904 82.4615 62.5928 82.4615 68.0235C82.4615 73.4542 78.059 77.8566 72.6284 77.8566C67.1977 77.8566 62.7953 73.4542 62.7953 68.0235Z" fill="#614EFD"/>
<path fill-rule="evenodd" clip-rule="evenodd" d="M72.6284 54.827C65.3404 54.827 59.4324 60.7351 59.4324 68.0231C59.4324 75.311 65.3404 81.2191 72.6284 81.2191C79.9164 81.2191 85.8244 75.311 85.8244 68.0231C85.8244 60.7351 79.9164 54.827 72.6284 54.827ZM55.8866 68.0231C55.8866 58.7768 63.3822 51.2812 72.6284 51.2812C81.8746 51.2812 89.3702 58.7768 89.3702 68.0231C89.3702 77.2693 81.8746 84.7649 72.6284 84.7649C63.3822 84.7649 55.8866 77.2693 55.8866 68.0231Z" fill="#614EFD"/>
<path fill-rule="evenodd" clip-rule="evenodd" d="M79.9214 84.3383C78.5367 82.9536 78.5367 80.7085 79.9214 79.3238L83.9278 75.3174C85.3125 73.9327 87.5576 73.9327 88.9423 75.3174L100.509 86.884C101.894 88.2687 101.894 90.5138 100.509 91.8985L96.5025 95.9049C95.1178 97.2896 92.8727 97.2896 91.488 95.9049L79.9214 84.3383ZM86.435 77.8247L82.4287 81.8311L93.9952 93.3976L98.0016 89.3913L86.435 77.8247Z" fill="#614EFD"/>
<path fill-rule="evenodd" clip-rule="evenodd" d="M29.6562 20.1748C29.3876 18.5632 30.2549 16.9767 31.7565 16.3329L37.2975 13.9573C38.763 13.329 40.4676 13.7562 41.4636 15.0013L44.6943 19.0401L52.1257 19.04L54.7852 15.2042C55.7257 13.8478 57.4777 13.3196 59.0111 13.9304L65.048 16.3347C66.5979 16.952 67.5079 18.5662 67.2336 20.2118L66.4671 24.8104L72.0855 30.429L76.7215 29.6564C78.3332 29.3877 79.9199 30.2553 80.5635 31.7572L82.9383 37.2985C83.5663 38.7639 83.139 40.4683 81.894 41.4641L77.1903 45.2266C76.4257 45.8382 75.31 45.7142 74.6984 44.9495C74.0868 44.1849 74.2108 43.0693 74.9754 42.4576L79.6792 38.6952L77.3044 33.1539L72.6685 33.9266C71.5389 34.1148 70.388 33.746 69.5782 32.9362L63.9598 27.3176C63.1501 26.5079 62.7813 25.3569 62.9696 24.2274L63.7361 19.6288L57.6991 17.2245L55.0396 21.0604C54.3771 22.0158 53.2883 22.5858 52.1257 22.5858L44.6943 22.5859C43.6171 22.5859 42.5983 22.0962 41.9254 21.255L38.6947 17.2162L33.1537 19.5918L33.9263 24.2273C34.1146 25.3568 33.7458 26.5078 32.936 27.3175L27.3176 32.9359C26.5079 33.7457 25.357 34.1145 24.2274 33.9262L19.5915 33.1536L17.2168 38.6952L21.255 41.9252C22.0962 42.5981 22.5859 43.6169 22.5859 44.6942L22.5859 52.2016C22.5859 53.2787 22.0964 54.2973 21.2554 54.9702L17.2167 58.2017L19.5914 63.7421L24.2275 62.9695C25.357 62.7813 26.5079 63.1501 27.3176 63.9598L32.9361 69.5784C33.7458 70.3881 34.1146 71.539 33.9264 72.6685L33.1537 77.3044L38.5123 79.6009L40.654 76.0314C41.2948 74.9634 42.449 74.3099 43.6945 74.3099L49.5994 74.31C50.5786 74.31 51.3723 75.1038 51.3723 76.0829C51.3723 77.0621 50.5785 77.8558 49.5994 77.8558L43.6944 77.8557L41.5528 81.4252C40.6405 82.9456 38.7453 83.5584 37.1155 82.86L31.757 80.5634C30.2551 79.9198 29.3876 78.3332 29.6562 76.7214L30.4288 72.0856L24.8104 66.4671L20.1743 67.2397C18.5626 67.5083 16.976 66.6408 16.3324 65.139L13.9577 59.5986C13.3297 58.1333 13.7567 56.4291 15.0015 55.4331L19.0401 52.2016L19.0401 44.6942L15.0019 41.4641C13.7569 40.4683 13.3297 38.7639 13.9576 37.2985L16.3324 31.7569C16.976 30.255 18.5626 29.3874 20.1744 29.656L24.8104 30.4287L30.4288 24.8103L29.6562 20.1748Z" fill="#614EFD"/>
<path fill-rule="evenodd" clip-rule="evenodd" d="M43.1758 33.4594C45.9468 32.6343 48.9017 32.66 51.6579 33.5333C54.414 34.4066 56.8445 36.0873 58.6347 38.3576C60.4249 40.6279 61.4922 43.3834 61.6986 46.2672C61.7685 47.2439 61.0334 48.0923 60.0567 48.1621C59.0801 48.232 58.2317 47.4969 58.1618 46.5203C58.0062 44.3447 57.2009 42.2658 55.8504 40.553C54.4998 38.8402 52.6662 37.5723 50.5868 36.9135C48.5075 36.2546 46.2783 36.2352 44.1878 36.8577C42.0973 37.4802 40.2418 38.7159 38.8616 40.4049C37.4813 42.0939 36.64 44.1584 36.4464 46.331C36.2528 48.5036 36.7159 50.6843 37.7757 52.5907C38.8356 54.4971 40.4433 56.0414 42.3908 57.0237C44.3383 58.006 46.5359 58.3811 48.6989 58.1002C49.6699 57.9742 50.5593 58.6591 50.6853 59.6301C50.8114 60.6011 50.1264 61.4904 49.1554 61.6165C46.2883 61.9887 43.3754 61.4916 40.794 60.1896C38.2126 58.8875 36.0815 56.8405 34.6767 54.3135C33.2718 51.7866 32.658 48.8961 32.9146 46.0163C33.1712 43.1364 34.2865 40.4 36.1159 38.1612C37.9454 35.9225 40.4049 34.2845 43.1758 33.4594Z" fill="#614EFD"/>
</svg>
