<svg width="150" height="150" viewBox="0 0 150 150" fill="none" xmlns="http://www.w3.org/2000/svg">
<path fill-rule="evenodd" clip-rule="evenodd" d="M73.0258 112.964C75.1421 115.351 78.8689 115.351 80.9851 112.964L103.418 87.6628C106.461 84.2313 104.025 78.8156 99.4385 78.8156H87.738L91.2722 57.2671C91.4307 56.3008 90.7759 55.3891 89.8096 55.2306C88.8434 55.0721 87.9316 55.7269 87.7732 56.6932L83.5633 82.3614H99.4385C100.967 82.3614 101.779 84.1666 100.765 85.3104L78.332 110.611C77.6266 111.407 76.3844 111.407 75.6789 110.611L53.2459 85.3104C52.2318 84.1666 53.0438 82.3614 54.5725 82.3614H63.9802C64.9593 82.3614 65.7531 81.5676 65.7531 80.5885C65.7531 79.6093 64.9593 78.8156 63.9802 78.8156H54.5725C49.9865 78.8156 47.5503 84.2313 50.5928 87.6628L73.0258 112.964ZM90.5534 50.5881C91.5192 50.749 92.4327 50.0966 92.5937 49.1308L93.4077 44.2463C93.5687 43.2805 92.9162 42.367 91.9504 42.2061C90.9846 42.0451 90.0712 42.6975 89.9102 43.6634L89.0961 48.5478C88.9352 49.5137 89.5876 50.4271 90.5534 50.5881Z" fill="#614EFD"/>
<path fill-rule="evenodd" clip-rule="evenodd" d="M51.769 50.9922C55.206 50.9922 57.9922 48.206 57.9922 44.769C57.9922 41.332 55.206 38.5458 51.769 38.5458C48.332 38.5458 45.5458 41.332 45.5458 44.769C45.5458 48.206 48.332 50.9922 51.769 50.9922ZM51.769 54.538C57.1642 54.538 61.538 50.1642 61.538 44.769C61.538 39.3737 57.1642 35 51.769 35C46.3737 35 42 39.3737 42 44.769C42 50.1642 46.3737 54.538 51.769 54.538Z" fill="#614EFD"/>
<path fill-rule="evenodd" clip-rule="evenodd" d="M71.3069 72.1582C74.7439 72.1582 77.5301 69.372 77.5301 65.935C77.5301 62.498 74.7439 59.7118 71.3069 59.7118C67.87 59.7118 65.0837 62.498 65.0837 65.935C65.0837 69.372 67.87 72.1582 71.3069 72.1582ZM71.3069 75.704C76.7022 75.704 81.0759 71.3302 81.0759 65.935C81.0759 60.5397 76.7022 56.166 71.3069 56.166C65.9117 56.166 61.538 60.5397 61.538 65.935C61.538 71.3302 65.9117 75.704 71.3069 75.704Z" fill="#614EFD"/>
<path d="M72.3716 41.4535C73.0075 40.8177 74.0384 40.8177 74.6742 41.4535C75.31 42.0894 75.31 43.1203 74.6742 43.7561L51.2304 67.2C50.5945 67.8358 49.5636 67.8358 48.9278 67.2C48.2919 66.5641 48.2919 65.5332 48.9278 64.8974L72.3716 41.4535Z" fill="#614EFD"/>
</svg>
