<svg width="10" height="153" viewBox="0 0 10 153" fill="none" xmlns="http://www.w3.org/2000/svg">
<path d="M5.5 151.014C5.5 150.738 5.27614 150.514 5 150.514C4.72386 150.514 4.5 150.738 4.5 151.014L5.5 151.014ZM4.5 147.042C4.5 147.318 4.72386 147.542 5 147.542C5.27614 147.542 5.5 147.318 5.5 147.042L4.5 147.042ZM5.5 143.069C5.5 142.793 5.27614 142.569 5 142.569C4.72386 142.569 4.5 142.793 4.5 143.069L5.5 143.069ZM4.5 139.097C4.5 139.373 4.72386 139.597 5 139.597C5.27614 139.597 5.5 139.373 5.5 139.097L4.5 139.097ZM5.5 135.125C5.5 134.849 5.27614 134.625 5 134.625C4.72386 134.625 4.5 134.849 4.5 135.125L5.5 135.125ZM4.5 131.153C4.5 131.429 4.72386 131.653 5 131.653C5.27614 131.653 5.5 131.429 5.5 131.153L4.5 131.153ZM5.5 127.181C5.5 126.904 5.27614 126.681 5 126.681C4.72386 126.681 4.5 126.904 4.5 127.181L5.5 127.181ZM4.5 123.208C4.5 123.484 4.72386 123.708 5 123.708C5.27614 123.708 5.5 123.484 5.5 123.208L4.5 123.208ZM5.5 119.236C5.5 118.96 5.27614 118.736 5 118.736C4.72386 118.736 4.5 118.96 4.5 119.236L5.5 119.236ZM4.5 115.264C4.5 115.54 4.72386 115.764 5 115.764C5.27614 115.764 5.5 115.54 5.5 115.264L4.5 115.264ZM5.5 111.292C5.5 111.016 5.27614 110.792 5 110.792C4.72386 110.792 4.5 111.016 4.5 111.292L5.5 111.292ZM4.5 107.319C4.5 107.596 4.72386 107.819 5 107.819C5.27614 107.819 5.5 107.596 5.5 107.319L4.5 107.319ZM5.5 103.347C5.5 103.071 5.27614 102.847 5 102.847C4.72386 102.847 4.5 103.071 4.5 103.347L5.5 103.347ZM4.5 99.375C4.5 99.6511 4.72386 99.875 5 99.875C5.27614 99.875 5.5 99.6511 5.5 99.375L4.5 99.375ZM5.5 95.4028C5.5 95.1266 5.27614 94.9028 5 94.9028C4.72386 94.9028 4.5 95.1266 4.5 95.4028L5.5 95.4028ZM4.5 91.4306C4.5 91.7067 4.72386 91.9306 5 91.9306C5.27615 91.9306 5.5 91.7067 5.5 91.4306L4.5 91.4306ZM5.5 87.4583C5.5 87.1822 5.27615 86.9583 5 86.9583C4.72386 86.9583 4.5 87.1822 4.5 87.4583L5.5 87.4583ZM4.5 83.4861C4.5 83.7623 4.72386 83.9861 5 83.9861C5.27615 83.9861 5.5 83.7623 5.5 83.4861L4.5 83.4861ZM5.5 79.5139C5.5 79.2378 5.27615 79.0139 5 79.0139C4.72386 79.0139 4.5 79.2378 4.5 79.5139L5.5 79.5139ZM4.5 75.5417C4.5 75.8178 4.72386 76.0417 5 76.0417C5.27615 76.0417 5.5 75.8178 5.5 75.5417L4.5 75.5417ZM5.5 71.5695C5.5 71.2933 5.27615 71.0695 5 71.0695C4.72386 71.0695 4.5 71.2933 4.5 71.5695L5.5 71.5695ZM4.5 67.5972C4.5 67.8734 4.72386 68.0972 5 68.0972C5.27615 68.0972 5.5 67.8734 5.5 67.5972L4.5 67.5972ZM5.5 63.625C5.5 63.3489 5.27615 63.125 5 63.125C4.72386 63.125 4.5 63.3489 4.5 63.625L5.5 63.625ZM4.5 59.6528C4.5 59.9289 4.72386 60.1528 5 60.1528C5.27615 60.1528 5.5 59.9289 5.5 59.6528L4.5 59.6528ZM5.5 55.6806C5.5 55.4044 5.27615 55.1806 5 55.1806C4.72386 55.1806 4.5 55.4044 4.5 55.6806L5.5 55.6806ZM4.5 51.7083C4.5 51.9845 4.72386 52.2083 5 52.2083C5.27615 52.2083 5.5 51.9845 5.5 51.7083L4.5 51.7083ZM5.5 47.7361C5.5 47.46 5.27615 47.2361 5 47.2361C4.72386 47.2361 4.5 47.46 4.5 47.7361L5.5 47.7361ZM4.5 43.7639C4.5 44.0401 4.72386 44.2639 5 44.2639C5.27615 44.2639 5.5 44.0401 5.5 43.7639L4.5 43.7639ZM5.5 39.7917C5.5 39.5155 5.27615 39.2917 5 39.2917C4.72386 39.2917 4.5 39.5155 4.5 39.7917L5.5 39.7917ZM4.50001 35.8195C4.50001 36.0956 4.72386 36.3195 5.00001 36.3195C5.27615 36.3195 5.50001 36.0956 5.50001 35.8195L4.50001 35.8195ZM5.50001 31.8472C5.50001 31.5711 5.27615 31.3472 5.00001 31.3472C4.72386 31.3472 4.50001 31.5711 4.50001 31.8472L5.50001 31.8472ZM4.50001 27.875C4.50001 28.1512 4.72386 28.375 5.00001 28.375C5.27615 28.375 5.50001 28.1512 5.50001 27.875L4.50001 27.875ZM5.50001 23.9028C5.50001 23.6267 5.27615 23.4028 5.00001 23.4028C4.72386 23.4028 4.50001 23.6267 4.50001 23.9028L5.50001 23.9028ZM4.50001 19.9306C4.50001 20.2067 4.72386 20.4306 5.00001 20.4306C5.27615 20.4306 5.50001 20.2067 5.50001 19.9306L4.50001 19.9306ZM5.50001 15.9583C5.50001 15.6822 5.27615 15.4583 5.00001 15.4583C4.72386 15.4583 4.50001 15.6822 4.50001 15.9583L5.50001 15.9583ZM4.50001 11.9861C4.50001 12.2622 4.72386 12.4861 5.00001 12.4861C5.27615 12.4861 5.50001 12.2622 5.50001 11.9861L4.50001 11.9861ZM5.5 153L5.5 151.014L4.5 151.014L4.5 153L5.5 153ZM5.5 147.042L5.5 143.069L4.5 143.069L4.5 147.042L5.5 147.042ZM5.5 139.097L5.5 135.125L4.5 135.125L4.5 139.097L5.5 139.097ZM5.5 131.153L5.5 127.181L4.5 127.181L4.5 131.153L5.5 131.153ZM5.5 123.208L5.5 119.236L4.5 119.236L4.5 123.208L5.5 123.208ZM5.5 115.264L5.5 111.292L4.5 111.292L4.5 115.264L5.5 115.264ZM5.5 107.319L5.5 103.347L4.5 103.347L4.5 107.319L5.5 107.319ZM5.5 99.375L5.5 95.4028L4.5 95.4028L4.5 99.375L5.5 99.375ZM5.5 91.4306L5.5 87.4583L4.5 87.4583L4.5 91.4306L5.5 91.4306ZM5.5 83.4861L5.5 79.5139L4.5 79.5139L4.5 83.4861L5.5 83.4861ZM5.5 75.5417L5.5 71.5695L4.5 71.5695L4.5 75.5417L5.5 75.5417ZM5.5 67.5972L5.5 63.625L4.5 63.625L4.5 67.5972L5.5 67.5972ZM5.5 59.6528L5.5 55.6806L4.5 55.6806L4.5 59.6528L5.5 59.6528ZM5.5 51.7083L5.5 47.7361L4.5 47.7361L4.5 51.7083L5.5 51.7083ZM5.5 43.7639L5.5 39.7917L4.5 39.7917L4.5 43.7639L5.5 43.7639ZM5.50001 35.8195L5.50001 31.8472L4.50001 31.8472L4.50001 35.8195L5.50001 35.8195ZM5.50001 27.875L5.50001 23.9028L4.50001 23.9028L4.50001 27.875L5.50001 27.875ZM5.50001 19.9306L5.50001 15.9583L4.50001 15.9583L4.50001 19.9306L5.50001 19.9306ZM5.50001 11.9861L5.50001 9.99999L4.50001 9.99999L4.50001 11.9861L5.50001 11.9861Z" fill="#614EFD" fill-opacity="0.5"/>
<circle cx="5" cy="5" r="5" fill="#614EFD"/>
</svg>
