<svg width="150" height="150" viewBox="0 0 150 150" fill="none" xmlns="http://www.w3.org/2000/svg">
<path fill-rule="evenodd" clip-rule="evenodd" d="M70.024 35.6482C71.7256 35.4307 73.4599 35.3208 75.2198 35.3253C76.9797 35.3299 78.7134 35.4487 80.4139 35.675C81.3845 35.8041 82.0666 36.6957 81.9374 37.6662C81.8083 38.6368 80.9168 39.3189 79.9462 39.1898C78.3973 38.9837 76.8168 38.8752 75.2106 38.8711C73.6045 38.867 72.0234 38.9672 70.4735 39.1653C69.5023 39.2895 68.6143 38.6028 68.4902 37.6315C68.366 36.6603 69.0527 35.7723 70.024 35.6482ZM62.294 39.2707C62.6667 40.1761 62.2349 41.2123 61.3294 41.585C58.3805 42.7989 55.6259 44.3911 53.1262 46.3018C52.3483 46.8964 51.2357 46.7478 50.641 45.9699C50.0464 45.192 50.195 44.0793 50.973 43.4847C53.716 41.388 56.7403 39.6397 59.9797 38.3062C60.8851 37.9334 61.9212 38.3653 62.294 39.2707ZM88.1251 39.3373C88.5025 38.4339 89.5408 38.0074 90.4443 38.3848C93.6768 39.735 96.692 41.4989 99.4242 43.6097C100.199 44.2083 100.342 45.3218 99.7433 46.0966C99.1447 46.8714 98.0313 47.0143 97.2564 46.4157C94.7666 44.4921 92.0203 42.8857 89.0776 41.6566C88.1742 41.2792 87.7477 40.2408 88.1251 39.3373ZM46.0965 50.491C46.8713 51.0897 47.0142 52.2031 46.4156 52.9779C44.492 55.4677 42.8856 58.2141 41.6565 61.1567C41.2791 62.0602 40.2407 62.4866 39.3372 62.1092C38.4338 61.7319 38.0073 60.6935 38.3847 59.79C39.7349 56.5575 41.4988 53.5423 43.6096 50.8101C44.2082 50.0353 45.3216 49.8924 46.0965 50.491ZM104.264 50.6412C105.042 50.0465 106.155 50.1951 106.75 50.9731C108.846 53.7161 110.595 56.7404 111.928 59.9798C112.301 60.8852 111.869 61.9214 110.964 62.2941C110.058 62.6668 109.022 62.235 108.649 61.3296C107.435 58.3806 105.843 55.626 103.933 53.1263C103.338 52.3484 103.487 51.2358 104.264 50.6412ZM37.6661 68.2969C38.6367 68.4261 39.3188 69.3176 39.1897 70.2882C38.9836 71.837 38.8751 73.4176 38.871 75.0237C38.8669 76.6298 38.9671 78.2109 39.1652 79.7608C39.2894 80.732 38.6027 81.62 37.6314 81.7441C36.6602 81.8683 35.7722 81.1816 35.6481 80.2103C35.4306 78.5087 35.3207 76.7744 35.3252 75.0145C35.3298 73.2547 35.4486 71.5209 35.6749 69.8204C35.804 68.8499 36.6955 68.1678 37.6661 68.2969ZM112.603 68.4903C113.574 68.3661 114.462 69.0528 114.586 70.0241C114.804 71.7257 114.914 73.46 114.909 75.2199C114.904 76.9798 114.786 78.7135 114.559 80.414C114.43 81.3846 113.539 82.0667 112.568 81.9375C111.597 81.8084 110.915 80.9169 111.045 79.9463C111.251 78.3974 111.359 76.8169 111.363 75.2107C111.367 73.6046 111.267 72.0235 111.069 70.4736C110.945 69.5024 111.632 68.6144 112.603 68.4903ZM39.2706 87.9403C40.176 87.5676 41.2121 87.9995 41.5849 88.9049C42.7988 91.8538 44.391 94.6084 46.3017 97.1081C46.8963 97.886 46.7477 98.9987 45.9698 99.5933C45.1919 100.188 44.0792 100.039 43.4846 99.2614C41.3879 96.5183 39.6396 93.494 38.3061 90.2546C37.9333 89.3492 38.3652 88.3131 39.2706 87.9403ZM110.897 88.1252C111.8 88.5026 112.227 89.5409 111.85 90.4444C110.499 93.6769 108.735 96.6921 106.625 99.4243C106.026 100.199 104.913 100.342 104.138 99.7434C103.363 99.1448 103.22 98.0314 103.819 97.2565C105.742 94.7668 107.349 92.0204 108.578 89.0778C108.955 88.1743 109.993 87.7478 110.897 88.1252ZM50.4909 104.138C51.0896 103.363 52.203 103.22 52.9778 103.819C55.4676 105.742 58.214 107.349 61.1566 108.578C62.0601 108.955 62.4865 109.994 62.1091 110.897C61.7317 111.801 60.6934 112.227 59.7899 111.85C56.5574 110.499 53.5422 108.735 50.81 106.625C50.0352 106.026 49.8923 104.913 50.4909 104.138ZM99.5932 104.265C100.188 105.042 100.039 106.155 99.2613 106.75C96.5182 108.846 93.4939 110.595 90.2545 111.928C89.3491 112.301 88.313 111.869 87.9402 110.964C87.5675 110.058 87.9993 109.022 88.9048 108.649C91.8537 107.435 94.6083 105.843 97.108 103.933C97.8859 103.338 98.9986 103.487 99.5932 104.265ZM68.2968 112.568C68.4259 111.598 69.3175 110.915 70.288 111.045C71.8369 111.251 73.4175 111.359 75.0236 111.363C76.6297 111.367 78.2108 111.267 79.7607 111.069C80.7319 110.945 81.6199 111.632 81.744 112.603C81.8682 113.574 81.1815 114.462 80.2102 114.586C78.5086 114.804 76.7743 114.914 75.0144 114.909C73.2546 114.905 71.5208 114.786 69.8203 114.559C68.8498 114.43 68.1676 113.539 68.2968 112.568Z" fill="#614EFD"/>
<path fill-rule="evenodd" clip-rule="evenodd" d="M111.703 90.7663C113.87 85.7004 114.961 80.2396 114.907 74.7299C114.854 69.2202 113.657 63.7817 111.391 58.7589C109.126 53.7361 105.843 49.2384 101.749 45.5508C97.6548 41.8632 92.8396 39.066 87.6081 37.3364C82.3767 35.6068 76.8431 34.9826 71.3578 35.5032C70.383 35.5957 69.6678 36.4609 69.7603 37.4356C69.8528 38.4104 70.718 39.1256 71.6928 39.0331C76.6893 38.5589 81.7298 39.1275 86.4951 40.703C91.2604 42.2784 95.6465 44.8264 99.3757 48.1854C103.105 51.5444 106.096 55.6413 108.159 60.2166C110.222 64.7918 111.313 69.7457 111.362 74.7644C111.411 79.7831 110.417 84.7573 108.443 89.3719C106.469 93.9864 103.558 98.1407 99.8953 101.572C96.2322 105.003 91.8965 107.635 87.1627 109.303C82.429 110.971 77.4005 111.638 72.3957 111.261C71.4194 111.188 70.5682 111.919 70.4947 112.896C70.4212 113.872 71.1531 114.723 72.1295 114.797C77.6239 115.211 83.1443 114.479 88.3411 112.648C93.5379 110.817 98.2978 107.926 102.319 104.16C106.341 100.393 109.536 95.8323 111.703 90.7663Z" fill="#614EFD"/>
<path fill-rule="evenodd" clip-rule="evenodd" d="M94.521 61.917C95.2487 62.572 95.3077 63.693 94.6527 64.4208L73.267 88.1828C72.6417 88.8776 71.5843 88.9675 70.8506 88.3883L55.8014 76.5073C55.0329 75.9006 54.9017 74.7857 55.5085 74.0172C56.1152 73.2487 57.23 73.1176 57.9985 73.7243L71.7433 84.5754L92.0172 62.0488C92.6722 61.321 93.7932 61.262 94.521 61.917Z" fill="#614EFD"/>
</svg>
