<svg width="20" height="20" viewBox="0 0 20 20" fill="none" xmlns="http://www.w3.org/2000/svg">
<path d="M19.2734 0.940441L15.211 0.0233407C14.7696 -0.0760118 14.3165 0.149442 14.1368 0.554495L12.2619 4.8343C12.0978 5.20878 12.2072 5.64822 12.5314 5.90425L14.8985 7.79959C13.4923 10.7305 11.0353 13.1684 7.97681 14.5708L6.03935 12.2552C5.77373 11.938 5.32842 11.831 4.94562 11.9915L0.570708 13.8257C0.152748 14.0053 -0.0777165 14.4486 0.0238439 14.8804L0.961325 18.8545C1.05898 19.2672 1.43397 19.5652 1.87537 19.5652C11.8791 19.5652 20 11.6361 20 1.83461C20 1.40663 19.6992 1.03597 19.2734 0.940441Z" fill="#525252"/>
</svg>
