<svg width="99" height="98" viewBox="0 0 99 98" fill="none" xmlns="http://www.w3.org/2000/svg">
<path fill-rule="evenodd" clip-rule="evenodd" d="M13.7098 45.8449C14.5451 45.3341 15.6364 45.5973 16.1472 46.4326C16.21 46.5353 16.2694 46.6323 16.326 46.7242C16.8397 47.5577 16.5804 48.6499 15.7468 49.1636C14.9132 49.6772 13.821 49.4179 13.3074 48.5843C13.2482 48.4883 13.1865 48.3878 13.122 48.2823C12.6113 47.4469 12.8744 46.3557 13.7098 45.8449ZM20.1352 54.4239C20.8992 53.8116 22.015 53.9347 22.6273 54.6987L22.8496 54.9763C23.4612 55.741 23.3371 56.8566 22.5725 57.4682C21.8079 58.0798 20.6922 57.9558 20.0806 57.1912L19.8604 56.9161C19.2481 56.152 19.3711 55.0362 20.1352 54.4239Z" fill="#614EFD"/>
<path fill-rule="evenodd" clip-rule="evenodd" d="M17.3234 27.1839C15.1946 29.312 13.892 31.1059 13.148 32.5028C12.3426 34.0153 12.4487 36.3306 13.3948 39.2274C13.6988 40.1581 13.1908 41.1591 12.26 41.4631C11.3293 41.7671 10.3283 41.259 10.0243 40.3283C9.00906 37.2199 8.50084 33.6858 10.0184 30.8361C10.9668 29.0552 12.5073 26.9847 14.8166 24.6762C16.3027 23.1906 18.0769 21.7403 19.9991 20.9444C21.9831 20.1229 24.2524 19.9615 26.3979 21.3142C27.3732 21.9291 28.4784 22.9779 29.5613 24.1513C30.6717 25.3546 31.857 26.7979 32.9962 28.3C35.2554 31.2787 37.4363 34.625 38.5124 36.9256C39.9911 40.0871 38.2267 42.915 36.7794 44.6849C36.1842 45.4129 35.5245 46.1023 34.9833 46.6681C34.8379 46.8201 34.701 46.9631 34.5763 47.0955C34.3363 47.3503 34.1436 47.5624 33.9933 47.7423C34.0098 47.7668 34.0273 47.7923 34.0457 47.8189C34.4026 48.3334 34.9743 49.0356 35.7318 49.8887C37.2363 51.5831 39.3364 53.7197 41.5513 55.864C43.7619 58.0041 46.0622 60.1283 47.9557 61.7938C48.9033 62.6273 49.7397 63.3377 50.4067 63.8747C50.9281 64.2944 51.2869 64.5594 51.4957 64.6999C51.5224 64.682 51.554 64.6599 51.5906 64.6327C51.9774 64.3468 52.3967 63.8887 53.0119 63.2168C53.0906 63.1308 53.1725 63.0413 53.2579 62.9482C53.9318 62.2144 54.795 61.2999 55.816 60.6299C56.876 59.9344 58.2194 59.4273 59.8024 59.6793C61.1329 59.8911 62.5902 60.5394 63.9831 61.3198C65.4076 62.1178 66.9044 63.1344 68.3414 64.2083C71.2136 66.3545 73.9592 68.8134 75.5817 70.436C77.4549 72.3092 78.3115 74.4317 77.9182 76.7751C77.5532 78.9507 76.1529 81.001 74.3338 82.963C72.2747 85.184 69.711 87.3847 67.4698 88.4211C61.3295 91.2605 54.3317 88.3538 47.8876 83.9542C41.3901 79.5181 34.7485 73.0716 28.8993 67.3943L28.7128 67.2133C26.3722 64.9416 23.7058 61.7986 21.6513 59.2628C20.6177 57.9872 19.7273 56.8505 19.0949 56.0324C18.7786 55.6231 18.5266 55.2932 18.3531 55.0649C18.2663 54.9507 18.1992 54.8619 18.1535 54.8013L18.1012 54.7319L18.0829 54.7074C18.0828 54.7073 18.0824 54.7068 19.4871 53.6545L18.0829 54.7074C17.4958 53.9238 17.6547 52.812 18.4383 52.225C19.222 51.6379 20.3331 51.7973 20.9202 52.5809L20.9356 52.6015L20.9843 52.6662C21.0276 52.7236 21.0922 52.809 21.1763 52.9196C21.3445 53.141 21.5906 53.4632 21.9004 53.864C22.5202 54.6658 23.3935 55.7806 24.4063 57.0307C26.4445 59.5464 29.0013 62.5521 31.1823 64.6689L31.239 64.7239C37.1795 70.4897 43.6425 76.7625 49.8869 81.0258C56.2738 85.3864 61.7399 87.1642 65.9816 85.2028C67.5987 84.455 69.7872 82.6518 71.7337 80.5523C73.4179 78.7357 74.2317 77.3188 74.4213 76.1884C74.5828 75.2259 74.3349 74.2037 73.0745 72.9432C71.564 71.4327 68.9462 69.0866 66.219 67.0486C64.8563 66.0304 63.4943 65.1102 62.2502 64.4132C60.9746 63.6986 59.9534 63.2938 59.2449 63.181C58.7889 63.1084 58.3318 63.2201 57.7612 63.5945C57.1517 63.9944 56.5543 64.6008 55.8696 65.3465C55.7935 65.4294 55.7146 65.5161 55.6333 65.6054C55.0683 66.2262 54.3864 66.9753 53.6986 67.4839C52.8572 68.106 51.4914 68.7354 49.989 67.9304C49.5155 67.6766 48.8618 67.183 48.1832 66.6367C47.4616 66.0558 46.5832 65.3088 45.6139 64.4562C43.6736 62.7495 41.3317 60.5866 39.085 58.4115C36.8426 56.2406 34.6703 54.0336 33.0803 52.243C32.2906 51.3535 31.6095 50.5278 31.1322 49.8398C30.8972 49.501 30.6728 49.1406 30.513 48.7875C30.4328 48.6103 30.347 48.3877 30.2947 48.1373C30.2454 47.9017 30.1984 47.5142 30.3245 47.0773C30.4846 46.5232 30.8121 46.0525 31.0639 45.7273C31.3386 45.3726 31.6713 45.0082 31.9952 44.6643C32.1551 44.4946 32.3161 44.3262 32.4771 44.1578C33.0059 43.6046 33.5357 43.0503 34.0344 42.4404C35.3984 40.7724 35.8187 39.5356 35.3006 38.4278C34.3798 36.4591 32.371 33.3433 30.1711 30.4426C29.0807 29.005 27.9691 27.6543 26.9556 26.5561C25.9146 25.4281 25.0689 24.668 24.5068 24.3136C23.5878 23.7341 22.5864 23.7108 21.3556 24.2204C20.063 24.7556 18.6783 25.8295 17.3234 27.1839ZM51.3712 64.7723C51.3713 64.772 51.3748 64.7704 51.3813 64.7682C51.3743 64.7715 51.3711 64.7726 51.3712 64.7723Z" fill="#614EFD"/>
<path fill-rule="evenodd" clip-rule="evenodd" d="M43.4559 28.5822C44.6376 25.2404 46.6358 22.247 49.2688 19.8741C51.9017 17.5012 55.0861 15.8239 58.5322 14.9948C61.9784 14.1658 65.5772 14.2112 69.0013 15.1269C72.4255 16.0426 75.5665 17.7997 78.1388 20.2383C80.7111 22.6769 82.6331 25.7197 83.7302 29.0902C84.8272 32.4606 85.0644 36.0518 84.4203 39.5373C83.7762 43.0228 82.2711 46.2921 80.0419 49.0478C77.8128 51.8036 74.9302 53.9586 71.6562 55.3168C70.7518 55.692 70.3228 56.7293 70.698 57.6337C71.0732 58.5381 72.1105 58.9671 73.0149 58.5919C76.8347 57.0072 80.1979 54.493 82.7987 51.2778C85.3995 48.0626 87.1555 44.2483 87.907 40.1817C88.6585 36.1151 88.3818 31.9252 87.1018 27.9928C85.8219 24.0604 83.5795 20.5102 80.5783 17.665C77.5771 14.8199 73.9125 12.7699 69.9174 11.7015C65.9223 10.6331 61.7236 10.5801 57.7029 11.5474C53.6821 12.5147 49.9669 14.4716 46.895 17.2402C43.823 20.0087 41.4917 23.5012 40.113 27.4001C39.7866 28.3232 40.2703 29.3361 41.1934 29.6626C42.1165 29.989 43.1295 29.5053 43.4559 28.5822Z" fill="#614EFD"/>
<path fill-rule="evenodd" clip-rule="evenodd" d="M54.7337 36.9238C55.4256 36.2318 55.4256 35.11 54.7337 34.418C54.0417 33.7261 52.9199 33.7261 52.228 34.418C51.536 35.11 51.536 36.2318 52.228 36.9238C52.9199 37.6157 54.0417 37.6157 54.7337 36.9238ZM55.9873 38.1774C57.3716 36.7931 57.3716 34.5487 55.9873 33.1644C54.603 31.7801 52.3586 31.7801 50.9743 33.1644C49.5901 34.5487 49.5901 36.7931 50.9743 38.1774C52.3586 39.5617 54.603 39.5617 55.9873 38.1774Z" fill="#614EFD"/>
<path fill-rule="evenodd" clip-rule="evenodd" d="M64.7598 36.9238C65.4517 36.2318 65.4517 35.11 64.7598 34.418C64.0678 33.7261 62.946 33.7261 62.2541 34.418C61.5621 35.11 61.5621 36.2318 62.2541 36.9238C62.946 37.6157 64.0678 37.6157 64.7598 36.9238ZM66.0134 38.1774C67.3977 36.7931 67.3977 34.5487 66.0134 33.1644C64.6291 31.7801 62.3847 31.7801 61.0004 33.1644C59.6161 34.5487 59.6161 36.7931 61.0004 38.1774C62.3847 39.5617 64.6291 39.5617 66.0134 38.1774Z" fill="#614EFD"/>
<path fill-rule="evenodd" clip-rule="evenodd" d="M74.7856 36.9233C75.4775 36.2313 75.4775 35.1095 74.7856 34.4176C74.0936 33.7256 72.9718 33.7256 72.2799 34.4176C71.5879 35.1095 71.5879 36.2313 72.2799 36.9233C72.9718 37.6152 74.0936 37.6152 74.7856 36.9233ZM76.0392 38.1769C77.4235 36.7926 77.4235 34.5482 76.0392 33.1639C74.6549 31.7796 72.4105 31.7796 71.0263 33.1639C69.642 34.5482 69.642 36.7926 71.0263 38.1769C72.4105 39.5612 74.6549 39.5612 76.0392 38.1769Z" fill="#614EFD"/>
</svg>
