<svg width="24" height="18" viewBox="0 0 24 18" fill="none" xmlns="http://www.w3.org/2000/svg">
<path fill-rule="evenodd" clip-rule="evenodd" d="M2 0H22C23.1 0 24 0.9 24 2L23.99 16C23.99 17.1 23.1 18 22 18H2C0.9 18 0 17.1 0 16V2C0 0.9 0.9 0 2 0ZM11 6C11 4.34 9.66 3 8 3C6.34 3 5 4.34 5 6C5 7.66 6.34 9 8 9C9.66 9 11 7.66 11 6ZM2 15V14C2 12 6 10.9 8 10.9C10 10.9 14 12 14 14V15H2ZM19.49 10.9998H17.85C17.63 10.3698 17.5 9.69977 17.5 8.99977C17.5 8.29977 17.63 7.62977 17.85 6.99977H19.49L21 4.99977L19.01 3.00977C17.7 3.98977 16.73 5.37977 16.28 6.99977C16.1 7.63977 16 8.30976 16 8.99977C16 9.68977 16.1 10.3598 16.28 10.9998C16.73 12.6098 17.7 14.0098 19.01 14.9898L21 12.9998L19.49 10.9998Z" fill="#614EFD"/>
</svg>
