<svg width="113" height="64" viewBox="0 0 113 64" fill="none" xmlns="http://www.w3.org/2000/svg">
<path fill-rule="evenodd" clip-rule="evenodd" d="M19.186 13.8378C19.186 12.8587 19.9798 12.0649 20.9589 12.0649L43.3649 12.0649C44.3441 12.0649 45.1378 12.8587 45.1378 13.8378C45.1378 14.817 44.3441 15.6107 43.3649 15.6107L20.9589 15.6107C19.9798 15.6107 19.186 14.817 19.186 13.8378Z" fill="#614EFD"/>
<path fill-rule="evenodd" clip-rule="evenodd" d="M8.84497 22.455C8.84497 21.4759 9.63872 20.6821 10.6179 20.6821L33.0238 20.6821C34.003 20.6821 34.7967 21.4759 34.7967 22.455C34.7967 23.4342 34.003 24.2279 33.0238 24.2279L10.6179 24.2279C9.63872 24.2279 8.84497 23.4342 8.84497 22.455Z" fill="#614EFD"/>
<path fill-rule="evenodd" clip-rule="evenodd" d="M15.739 31.0737C15.739 30.0945 16.5328 29.3008 17.5119 29.3008L39.9179 29.3008C40.897 29.3008 41.6908 30.0945 41.6908 31.0737C41.6908 32.0528 40.897 32.8466 39.9179 32.8466L17.5119 32.8466C16.5328 32.8466 15.739 32.0528 15.739 31.0737Z" fill="#614EFD"/>
<path fill-rule="evenodd" clip-rule="evenodd" d="M7.12128 39.6904C7.12128 38.7112 7.91503 37.9175 8.89417 37.9175L31.3002 37.9175C32.2793 37.9175 33.073 38.7112 33.073 39.6904C33.073 40.6695 32.2793 41.4633 31.3002 41.4633L8.89417 41.4633C7.91503 41.4633 7.12128 40.6695 7.12128 39.6904Z" fill="#614EFD"/>
<path fill-rule="evenodd" clip-rule="evenodd" d="M0.227112 31.0737C0.227112 30.0945 1.02086 29.3008 2 29.3008H8.89415C9.87329 29.3008 10.667 30.0945 10.667 31.0737C10.667 32.0528 9.87329 32.8466 8.89415 32.8466H2C1.02086 32.8466 0.227112 32.0528 0.227112 31.0737Z" fill="#614EFD"/>
<path fill-rule="evenodd" clip-rule="evenodd" d="M7.12128 13.8378C7.12128 12.8587 7.91503 12.0649 8.89417 12.0649L12.3412 12.0649C13.3204 12.0649 14.1141 12.8587 14.1141 13.8378C14.1141 14.817 13.3204 15.6107 12.3412 15.6107L8.89417 15.6107C7.91503 15.6107 7.12128 14.817 7.12128 13.8378Z" fill="#614EFD"/>
<path fill-rule="evenodd" clip-rule="evenodd" d="M77.7864 10.3398H98.0504C100.065 10.3398 101.907 11.478 102.808 13.2799L112.169 32.0023L112.356 32.7952V48.2083C112.356 51.1457 109.975 53.527 107.037 53.527H101.965V49.9812H107.037C108.016 49.9812 108.81 49.1875 108.81 48.2083V33.2137L99.6361 14.8656C99.3358 14.265 98.7219 13.8856 98.0504 13.8856H81.3322V49.9812H83.0064V53.527H77.7864V10.3398Z" fill="#614EFD"/>
<path fill-rule="evenodd" clip-rule="evenodd" d="M29.6754 0C26.738 0 24.3568 2.38125 24.3568 5.31867V6.08173C24.3568 7.06087 25.1505 7.85462 26.1296 7.85462C27.1088 7.85462 27.9025 7.06087 27.9025 6.08173V5.31867C27.9025 4.33953 28.6963 3.54578 29.6754 3.54578H76.0135C76.9927 3.54578 77.7864 4.33952 77.7864 5.31867V49.9826H56.8923C55.706 45.0395 51.2572 41.3658 45.9503 41.3658C40.6435 41.3658 36.1946 45.0395 35.0083 49.9826H29.6754C28.6963 49.9826 27.9025 49.1888 27.9025 48.2097V47.4466C27.9025 46.4675 27.1088 45.6737 26.1296 45.6737C25.1505 45.6737 24.3568 46.4675 24.3568 47.4466V48.2097C24.3568 51.1471 26.738 53.5284 29.6754 53.5284H34.7343C35.1977 59.3172 40.0423 63.8705 45.9503 63.8705C51.8584 63.8705 56.703 59.3172 57.1664 53.5284H79.5593H81.3322V51.7555V5.31867C81.3322 2.38125 78.951 0 76.0135 0H29.6754ZM38.2438 52.6181C38.2438 48.3619 41.6941 44.9116 45.9503 44.9116C50.2066 44.9116 53.6569 48.3619 53.6569 52.6181C53.6569 56.8743 50.2066 60.3247 45.9503 60.3247C41.6941 60.3247 38.2438 56.8743 38.2438 52.6181Z" fill="#614EFD"/>
<path fill-rule="evenodd" clip-rule="evenodd" d="M92.4857 44.912C88.2295 44.912 84.7791 48.3623 84.7791 52.6186C84.7791 56.8748 88.2295 60.3251 92.4857 60.3251C96.7419 60.3251 100.192 56.8748 100.192 52.6186C100.192 48.3623 96.7419 44.912 92.4857 44.912ZM81.2333 52.6186C81.2333 46.4041 86.2712 41.3662 92.4857 41.3662C98.7002 41.3662 103.738 46.4041 103.738 52.6186C103.738 58.8331 98.7002 63.8709 92.4857 63.8709C86.2712 63.8709 81.2333 58.8331 81.2333 52.6186Z" fill="#614EFD"/>
<path fill-rule="evenodd" clip-rule="evenodd" d="M91.624 18.9585C92.6031 18.9585 93.3969 19.7522 93.3969 20.7314V31.0233H108.859C109.838 31.0233 110.632 31.817 110.632 32.7961C110.632 33.7753 109.838 34.569 108.859 34.569H89.8511V20.7314C89.8511 19.7522 90.6448 18.9585 91.624 18.9585Z" fill="#614EFD"/>
</svg>
