<svg width="30" height="48" viewBox="0 0 30 48" fill="none" xmlns="http://www.w3.org/2000/svg">
<path d="M10.2188 21.4062H14.3438C16.3646 21.4062 18.0312 21.0729 19.3438 20.4062C20.6771 19.7188 21.6667 18.7917 22.3125 17.625C22.9792 16.4375 23.3125 15.1042 23.3125 13.625C23.3125 11.875 23.0208 10.4062 22.4375 9.21875C21.8542 8.03125 20.9792 7.13542 19.8125 6.53125C18.6458 5.92708 17.1667 5.625 15.375 5.625C13.75 5.625 12.3125 5.94792 11.0625 6.59375C9.83333 7.21875 8.86458 8.11458 8.15625 9.28125C7.46875 10.4479 7.125 11.8229 7.125 13.4062H1.34375C1.34375 11.0938 1.92708 8.98958 3.09375 7.09375C4.26042 5.19792 5.89583 3.6875 8 2.5625C10.125 1.4375 12.5833 0.875 15.375 0.875C18.125 0.875 20.5312 1.36458 22.5938 2.34375C24.6562 3.30208 26.2604 4.73958 27.4062 6.65625C28.5521 8.55208 29.125 10.9167 29.125 13.75C29.125 14.8958 28.8542 16.125 28.3125 17.4375C27.7917 18.7292 26.9688 19.9375 25.8438 21.0625C24.7396 22.1875 23.3021 23.1146 21.5312 23.8438C19.7604 24.5521 17.6354 24.9062 15.1562 24.9062H10.2188V21.4062ZM10.2188 26.1562V22.6875H15.1562C18.0521 22.6875 20.4479 23.0312 22.3438 23.7188C24.2396 24.4062 25.7292 25.3229 26.8125 26.4688C27.9167 27.6146 28.6875 28.875 29.125 30.25C29.5833 31.6042 29.8125 32.9583 29.8125 34.3125C29.8125 36.4375 29.4479 38.3229 28.7188 39.9688C28.0104 41.6146 27 43.0104 25.6875 44.1562C24.3958 45.3021 22.875 46.1667 21.125 46.75C19.375 47.3333 17.4688 47.625 15.4062 47.625C13.4271 47.625 11.5625 47.3438 9.8125 46.7812C8.08333 46.2188 6.55208 45.4062 5.21875 44.3438C3.88542 43.2604 2.84375 41.9375 2.09375 40.375C1.34375 38.7917 0.96875 36.9896 0.96875 34.9688H6.75C6.75 36.5521 7.09375 37.9375 7.78125 39.125C8.48958 40.3125 9.48958 41.2396 10.7812 41.9062C12.0938 42.5521 13.6354 42.875 15.4062 42.875C17.1771 42.875 18.6979 42.5729 19.9688 41.9688C21.2604 41.3438 22.25 40.4062 22.9375 39.1562C23.6458 37.9062 24 36.3333 24 34.4375C24 32.5417 23.6042 30.9896 22.8125 29.7812C22.0208 28.5521 20.8958 27.6458 19.4375 27.0625C18 26.4583 16.3021 26.1562 14.3438 26.1562H10.2188Z" fill="url(#paint0_linear_135_697)"/>
<defs>
<linearGradient id="paint0_linear_135_697" x1="16" y1="-13" x2="16" y2="64" gradientUnits="userSpaceOnUse">
<stop stop-color="#3ADFFD"/>
<stop offset="1" stop-color="#614EFD"/>
</linearGradient>
</defs>
</svg>
