<svg width="30" height="47" viewBox="0 0 30 47" fill="none" xmlns="http://www.w3.org/2000/svg">
<path d="M7.09375 24.3438L2.46875 23.1562L4.75 0.5H28.0938V5.84375H9.65625L8.28125 18.2188C9.11458 17.7396 10.1667 17.2917 11.4375 16.875C12.7292 16.4583 14.2083 16.25 15.875 16.25C17.9792 16.25 19.8646 16.6146 21.5312 17.3438C23.1979 18.0521 24.6146 19.0729 25.7812 20.4062C26.9688 21.7396 27.875 23.3438 28.5 25.2188C29.125 27.0938 29.4375 29.1875 29.4375 31.5C29.4375 33.6875 29.1354 35.6979 28.5312 37.5312C27.9479 39.3646 27.0625 40.9688 25.875 42.3438C24.6875 43.6979 23.1875 44.75 21.375 45.5C19.5833 46.25 17.4688 46.625 15.0312 46.625C13.1979 46.625 11.4583 46.375 9.8125 45.875C8.1875 45.3542 6.72917 44.5729 5.4375 43.5312C4.16667 42.4688 3.125 41.1562 2.3125 39.5938C1.52083 38.0104 1.02083 36.1562 0.8125 34.0312H6.3125C6.5625 35.7396 7.0625 37.1771 7.8125 38.3438C8.5625 39.5104 9.54167 40.3958 10.75 41C11.9792 41.5833 13.4062 41.875 15.0312 41.875C16.4062 41.875 17.625 41.6354 18.6875 41.1562C19.75 40.6771 20.6458 39.9896 21.375 39.0938C22.1042 38.1979 22.6562 37.1146 23.0312 35.8438C23.4271 34.5729 23.625 33.1458 23.625 31.5625C23.625 30.125 23.4271 28.7917 23.0312 27.5625C22.6354 26.3333 22.0417 25.2604 21.25 24.3438C20.4792 23.4271 19.5312 22.7188 18.4062 22.2188C17.2812 21.6979 15.9896 21.4375 14.5312 21.4375C12.5938 21.4375 11.125 21.6979 10.125 22.2188C9.14583 22.7396 8.13542 23.4479 7.09375 24.3438Z" fill="url(#paint0_linear_135_700)"/>
<defs>
<linearGradient id="paint0_linear_135_700" x1="14" y1="-14" x2="14" y2="63" gradientUnits="userSpaceOnUse">
<stop stop-color="#3ADFFD"/>
<stop offset="1" stop-color="#614EFD"/>
</linearGradient>
</defs>
</svg>
