<svg xmlns="http://www.w3.org/2000/svg" xmlns:xlink="http://www.w3.org/1999/xlink"><symbol id="icon-arrow_left" viewBox="0 0 26 9"><path fill-rule="evenodd" clip-rule="evenodd" d="M22.36.964l3.002 3.182a.521.521 0 010 .708L22.36 8.036a.453.453 0 01-.667 0 .521.521 0 010-.708L23.89 5H.5V4h23.39l-2.197-2.328a.521.521 0 010-.708.453.453 0 01.667 0z"/></symbol><symbol id="icon-arrow_right" viewBox="0 0 26 9"><path fill-rule="evenodd" clip-rule="evenodd" d="M3.64.964L.638 4.146a.521.521 0 000 .708L3.64 8.036a.453.453 0 00.667 0 .521.521 0 000-.708L2.11 5H25.5V4H2.11l2.197-2.328a.521.521 0 000-.708.453.453 0 00-.667 0z"/></symbol><symbol id="icon-benefit_1" viewBox="0 0 150 150"><path fill-rule="evenodd" clip-rule="evenodd" d="M70.024 35.648a40.156 40.156 0 0110.39.027 1.773 1.773 0 11-.468 3.515 36.613 36.613 0 00-9.473-.024 1.773 1.773 0 11-.449-3.518zm-7.73 3.623a1.773 1.773 0 01-.965 2.314 36.203 36.203 0 00-8.203 4.717 1.773 1.773 0 01-2.153-2.817 39.748 39.748 0 019.007-5.179 1.773 1.773 0 012.314.965zm25.831.066a1.773 1.773 0 012.32-.952 39.75 39.75 0 018.98 5.225 1.773 1.773 0 11-2.169 2.806 36.2 36.2 0 00-8.178-4.76 1.773 1.773 0 01-.953-2.319zM46.096 50.491c.775.599.918 1.712.32 2.487a36.202 36.202 0 00-4.76 8.179 1.773 1.773 0 01-3.271-1.367 39.75 39.75 0 015.225-8.98 1.773 1.773 0 012.486-.319zm58.168.15a1.774 1.774 0 012.486.332 39.754 39.754 0 015.178 9.007 1.773 1.773 0 11-3.279 1.35 36.229 36.229 0 00-4.716-8.204 1.773 1.773 0 01.331-2.485zM37.666 68.297c.97.13 1.653 1.02 1.524 1.991a36.613 36.613 0 00-.025 9.473 1.773 1.773 0 11-3.517.45 40.156 40.156 0 01.027-10.39 1.773 1.773 0 011.991-1.524zm74.937.193a1.773 1.773 0 011.983 1.534 39.98 39.98 0 01.323 5.196 40.103 40.103 0 01-.35 5.194 1.772 1.772 0 11-3.514-.468c.206-1.549.314-3.13.318-4.735a36.649 36.649 0 00-.294-4.737 1.773 1.773 0 011.534-1.984zM39.271 87.94a1.773 1.773 0 012.314.965 36.203 36.203 0 004.717 8.203 1.773 1.773 0 01-2.817 2.153 39.751 39.751 0 01-5.179-9.006 1.773 1.773 0 01.965-2.315zm71.626.185a1.774 1.774 0 01.953 2.32 39.81 39.81 0 01-5.225 8.98 1.773 1.773 0 01-2.806-2.168 36.218 36.218 0 004.759-8.18 1.772 1.772 0 012.319-.952zm-60.406 16.013a1.772 1.772 0 012.487-.319 36.22 36.22 0 008.179 4.759 1.773 1.773 0 11-1.367 3.272 39.81 39.81 0 01-8.98-5.225 1.773 1.773 0 01-.32-2.487zm49.102.127c.595.777.446 1.89-.332 2.485a39.757 39.757 0 01-9.007 5.178 1.773 1.773 0 11-1.35-3.279 36.23 36.23 0 008.204-4.716 1.773 1.773 0 012.485.332zm-31.296 8.303a1.772 1.772 0 011.991-1.523c1.549.206 3.13.314 4.736.318a36.649 36.649 0 004.737-.294 1.773 1.773 0 01.45 3.517 39.98 39.98 0 01-5.197.323 39.928 39.928 0 01-5.194-.35 1.772 1.772 0 01-1.523-1.991z"/><path fill-rule="evenodd" clip-rule="evenodd" d="M111.703 90.766a39.783 39.783 0 00-.312-32.007 39.789 39.789 0 00-40.033-23.256 1.773 1.773 0 10.335 3.53 36.245 36.245 0 11.703 72.228 1.773 1.773 0 00-.267 3.536 39.788 39.788 0 0039.574-24.03z"/><path fill-rule="evenodd" clip-rule="evenodd" d="M94.521 61.917c.728.655.787 1.776.132 2.504L73.267 88.183a1.773 1.773 0 01-2.416.205L55.8 76.508a1.773 1.773 0 112.197-2.784l13.745 10.851L92.017 62.05a1.773 1.773 0 012.504-.132z"/></symbol><symbol id="icon-benefit_2" viewBox="0 0 104 99"><path fill-rule="evenodd" clip-rule="evenodd" d="M72.628 61.736a6.287 6.287 0 100 12.575 6.287 6.287 0 000-12.575zm-9.833 6.288c0-5.431 4.403-9.834 9.833-9.834 5.431 0 9.834 4.403 9.834 9.834 0 5.43-4.403 9.833-9.834 9.833-5.43 0-9.833-4.403-9.833-9.834z"/><path fill-rule="evenodd" clip-rule="evenodd" d="M72.628 54.827c-7.288 0-13.196 5.908-13.196 13.196 0 7.288 5.908 13.196 13.196 13.196 7.288 0 13.196-5.908 13.196-13.196 0-7.288-5.908-13.196-13.196-13.196zM55.887 68.023c0-9.246 7.495-16.742 16.741-16.742 9.247 0 16.742 7.496 16.742 16.742s-7.495 16.742-16.742 16.742c-9.246 0-16.741-7.496-16.741-16.742z"/><path fill-rule="evenodd" clip-rule="evenodd" d="M79.921 84.338a3.546 3.546 0 010-5.014l4.007-4.007a3.546 3.546 0 015.014 0l11.567 11.567a3.545 3.545 0 010 5.014l-4.007 4.007a3.546 3.546 0 01-5.014 0L79.921 84.338zm6.514-6.513l-4.006 4.006 11.566 11.567 4.007-4.007-11.567-11.566zM29.656 20.175a3.546 3.546 0 012.1-3.842l5.541-2.376a3.546 3.546 0 014.167 1.044l3.23 4.04 7.432-.001 2.66-3.836a3.546 3.546 0 014.225-1.274l6.037 2.405a3.546 3.546 0 012.186 3.877l-.767 4.598 5.618 5.619 4.637-.773a3.546 3.546 0 013.842 2.101l2.374 5.541c.628 1.466.201 3.17-1.044 4.166l-4.704 3.763a1.773 1.773 0 11-2.215-2.77l4.704-3.762-2.375-5.541-4.636.773a3.546 3.546 0 01-3.09-.99l-5.618-5.62a3.546 3.546 0 01-.99-3.09l.766-4.598-6.037-2.405-2.66 3.836a3.546 3.546 0 01-2.913 1.526h-7.432a3.546 3.546 0 01-2.769-1.331l-3.23-4.039-5.541 2.376.772 4.635a3.545 3.545 0 01-.99 3.09l-5.618 5.619a3.545 3.545 0 01-3.09.99l-4.637-.772-2.374 5.541 4.038 3.23a3.546 3.546 0 011.33 2.77v7.507c0 1.077-.489 2.095-1.33 2.768l-4.038 3.232 2.374 5.54 4.636-.773c1.13-.188 2.28.181 3.09.99l5.62 5.62c.809.81 1.178 1.96.99 3.09l-.773 4.635 5.358 2.297 2.142-3.57a3.546 3.546 0 013.04-1.721H49.6a1.773 1.773 0 110 3.546h-5.905l-2.141 3.57a3.546 3.546 0 01-4.438 1.434l-5.358-2.297a3.546 3.546 0 01-2.1-3.842l.772-4.635-5.619-5.619-4.636.773a3.546 3.546 0 01-3.842-2.101l-2.374-5.54A3.546 3.546 0 0115 55.433l4.04-3.231v-7.508L15 41.464a3.546 3.546 0 01-1.043-4.166l2.374-5.541a3.546 3.546 0 013.842-2.101l4.636.773 5.619-5.619-.773-4.635z"/><path fill-rule="evenodd" clip-rule="evenodd" d="M43.176 33.46a14.44 14.44 0 0118.523 12.807 1.773 1.773 0 11-3.537.253 10.893 10.893 0 10-9.463 11.58 1.773 1.773 0 01.456 3.517 14.44 14.44 0 01-5.98-28.158z"/></symbol><symbol id="icon-benefit_3" viewBox="0 0 113 64"><path fill-rule="evenodd" clip-rule="evenodd" d="M19.186 13.838c0-.98.794-1.773 1.773-1.773h22.406a1.773 1.773 0 110 3.546H20.959c-.98 0-1.773-.794-1.773-1.773zM8.845 22.455c0-.98.794-1.773 1.773-1.773h22.406a1.773 1.773 0 110 3.546H10.618c-.98 0-1.773-.794-1.773-1.773zM15.739 31.074c0-.98.794-1.773 1.773-1.773h22.406a1.773 1.773 0 110 3.546H17.512c-.98 0-1.773-.794-1.773-1.773zM7.121 39.69c0-.979.794-1.773 1.773-1.773H31.3a1.773 1.773 0 010 3.546H8.894c-.979 0-1.773-.794-1.773-1.773zM.227 31.074c0-.98.794-1.773 1.773-1.773h6.894a1.773 1.773 0 110 3.546H2c-.98 0-1.773-.794-1.773-1.773zM7.121 13.838c0-.98.794-1.773 1.773-1.773h3.447a1.773 1.773 0 110 3.546H8.894c-.979 0-1.773-.794-1.773-1.773zM77.786 10.34H98.05a5.32 5.32 0 014.758 2.94l9.361 18.722.187.793v15.413a5.319 5.319 0 01-5.319 5.319h-5.072v-3.546h5.072c.979 0 1.773-.794 1.773-1.773V33.214l-9.174-18.348c-.3-.601-.914-.98-1.586-.98H81.332V49.98h1.674v3.546h-5.22V10.34z"/><path fill-rule="evenodd" clip-rule="evenodd" d="M29.675 0a5.319 5.319 0 00-5.318 5.319v.763a1.773 1.773 0 103.546 0v-.763c0-.98.793-1.773 1.772-1.773h46.338c.98 0 1.773.794 1.773 1.773v44.664H56.892c-1.186-4.944-5.635-8.617-10.942-8.617-5.306 0-9.755 3.673-10.942 8.617h-5.333c-.979 0-1.773-.794-1.773-1.773v-.763a1.773 1.773 0 10-3.545 0v.763a5.319 5.319 0 005.318 5.318h5.06c.463 5.79 5.307 10.343 11.215 10.343 5.908 0 10.753-4.554 11.216-10.343h24.166V5.32A5.319 5.319 0 0076.013 0H29.675zm8.569 52.618a7.706 7.706 0 1115.413 0 7.706 7.706 0 01-15.413 0z"/><path fill-rule="evenodd" clip-rule="evenodd" d="M92.486 44.912a7.707 7.707 0 100 15.413 7.707 7.707 0 000-15.413zm-11.253 7.707c0-6.215 5.038-11.253 11.253-11.253 6.214 0 11.252 5.038 11.252 11.253 0 6.214-5.038 11.252-11.252 11.252-6.215 0-11.253-5.038-11.253-11.252zM91.624 18.959c.98 0 1.773.793 1.773 1.772v10.292h15.462a1.773 1.773 0 010 3.546H89.851V20.731c0-.979.794-1.773 1.773-1.773z"/></symbol><symbol id="icon-benefit_4" viewBox="0 0 99 98"><path fill-rule="evenodd" clip-rule="evenodd" d="M13.71 45.845a1.773 1.773 0 012.437.588l.179.291a1.773 1.773 0 11-3.019 1.86l-.185-.302a1.773 1.773 0 01.588-2.437zm6.425 8.579a1.773 1.773 0 012.492.275l.223.277a1.773 1.773 0 01-2.77 2.215l-.22-.275a1.773 1.773 0 01.275-2.492z"/><path fill-rule="evenodd" clip-rule="evenodd" d="M17.323 27.184c-2.128 2.128-3.431 3.922-4.175 5.319-.805 1.512-.7 3.828.247 6.724a1.773 1.773 0 11-3.37 1.101c-1.016-3.108-1.524-6.642-.007-9.492.949-1.78 2.49-3.851 4.799-6.16 1.486-1.485 3.26-2.936 5.182-3.732 1.984-.821 4.253-.982 6.399.37.975.615 2.08 1.664 3.163 2.837 1.11 1.204 2.296 2.647 3.435 4.149 2.26 2.979 4.44 6.325 5.516 8.626 1.48 3.161-.285 5.989-1.733 7.759-.595.728-1.255 1.417-1.796 1.983-.145.152-.282.295-.407.428-.24.254-.432.466-.583.646l.053.077c.357.514.928 1.217 1.686 2.07 1.504 1.694 3.604 3.83 5.82 5.975 2.21 2.14 4.51 4.264 6.404 5.93a76.887 76.887 0 002.45 2.08c.522.42.88.685 1.09.826l.095-.067c.386-.286.806-.744 1.42-1.416l.247-.269c.674-.734 1.537-1.648 2.558-2.318 1.06-.696 2.403-1.203 3.986-.95 1.33.211 2.788.86 4.181 1.64 1.425.798 2.921 1.814 4.358 2.888 2.873 2.147 5.618 4.605 7.24 6.228 1.874 1.873 2.73 3.996 2.337 6.34-.365 2.175-1.765 4.225-3.584 6.187-2.06 2.221-4.623 4.422-6.864 5.458-6.14 2.84-13.138-.067-19.582-4.467-6.498-4.436-13.14-10.882-18.989-16.56l-.186-.18c-2.34-2.272-5.007-5.415-7.062-7.951a181.994 181.994 0 01-3.497-4.462l-.053-.07-.018-.024 1.404-1.053-1.404 1.053a1.773 1.773 0 012.837-2.126l.016.02.048.065.192.254c.169.221.415.543.724.944.62.802 1.494 1.917 2.506 3.167 2.039 2.515 4.595 5.521 6.776 7.638l.057.055c5.94 5.766 12.403 12.038 18.648 16.302 6.387 4.36 11.853 6.138 16.095 4.177 1.617-.748 3.805-2.551 5.752-4.65 1.684-1.817 2.498-3.234 2.687-4.365.162-.962-.086-1.984-1.347-3.245-1.51-1.51-4.128-3.856-6.855-5.894-1.363-1.019-2.725-1.939-3.969-2.636-1.275-.714-2.297-1.12-3.005-1.232-.456-.073-.913.04-1.484.413-.61.4-1.207 1.007-1.891 1.753l-.237.258c-.565.621-1.247 1.37-1.934 1.879-.842.622-2.208 1.251-3.71.446-.473-.253-1.127-.747-1.806-1.293-.721-.581-1.6-1.328-2.57-2.18a194.295 194.295 0 01-6.528-6.045c-2.242-2.171-4.415-4.378-6.005-6.169-.79-.89-1.47-1.715-1.948-2.403-.235-.339-.46-.7-.619-1.053-.08-.177-.166-.4-.218-.65a2.195 2.195 0 01.03-1.06c.16-.554.487-1.024.739-1.35.275-.354.607-.719.931-1.063.16-.17.321-.338.482-.506.529-.553 1.059-1.108 1.557-1.718 1.364-1.668 1.785-2.904 1.267-4.012-.921-1.969-2.93-5.085-5.13-7.985-1.09-1.438-2.202-2.789-3.215-3.887-1.041-1.128-1.887-1.888-2.45-2.242-.918-.58-1.92-.603-3.15-.094-1.293.536-2.678 1.61-4.033 2.964zm34.048 37.588l.01-.004a.042.042 0 01-.01.004zM43.456 28.582a21.267 21.267 0 1128.2 26.735 1.773 1.773 0 101.359 3.275A24.814 24.814 0 1040.113 27.4a1.773 1.773 0 003.343 1.182z"/><path fill-rule="evenodd" clip-rule="evenodd" d="M54.734 36.924a1.772 1.772 0 10-2.506-2.506 1.772 1.772 0 002.506 2.506zm1.253 1.253a3.545 3.545 0 10-5.013-5.013 3.545 3.545 0 005.013 5.013zM64.76 36.924a1.772 1.772 0 10-2.506-2.506 1.772 1.772 0 002.506 2.506zm1.253 1.253A3.545 3.545 0 1061 33.164a3.545 3.545 0 005.013 5.013zM74.786 36.923a1.772 1.772 0 10-2.506-2.505 1.772 1.772 0 002.506 2.505zm1.253 1.254a3.545 3.545 0 10-5.013-5.013 3.545 3.545 0 005.013 5.013z"/></symbol><symbol id="icon-benefit_5" viewBox="0 0 150 150"><path fill-rule="evenodd" clip-rule="evenodd" d="M73.026 112.964a5.318 5.318 0 007.96 0l22.432-25.301c3.043-3.432.607-8.847-3.98-8.847h-11.7l3.534-21.549a1.773 1.773 0 10-3.499-.574l-4.21 25.668H99.44c1.528 0 2.34 1.806 1.326 2.95l-22.433 25.3a1.772 1.772 0 01-2.653 0l-22.433-25.3c-1.014-1.144-.202-2.95 1.326-2.95h9.408a1.773 1.773 0 000-3.545h-9.407c-4.587 0-7.023 5.415-3.98 8.847l22.433 25.301zm17.527-62.376c.966.161 1.88-.491 2.04-1.457l.815-4.885a1.773 1.773 0 10-3.498-.583l-.814 4.885c-.16.966.492 1.88 1.457 2.04zM51.769 50.992a6.223 6.223 0 100-12.446 6.223 6.223 0 000 12.446zm0 3.546c5.395 0 9.769-4.374 9.769-9.769 0-5.395-4.374-9.769-9.769-9.769C46.374 35 42 39.374 42 44.769c0 5.395 4.374 9.769 9.769 9.769z"/><path fill-rule="evenodd" clip-rule="evenodd" d="M71.307 72.158a6.223 6.223 0 100-12.446 6.223 6.223 0 000 12.446zm0 3.546c5.395 0 9.769-4.374 9.769-9.769 0-5.395-4.374-9.769-9.77-9.769-5.394 0-9.768 4.374-9.768 9.769 0 5.395 4.374 9.769 9.769 9.769z"/><path d="M72.372 41.453a1.628 1.628 0 012.302 2.303L51.23 67.2a1.628 1.628 0 01-2.302-2.303l23.444-23.444z"/></symbol><symbol id="icon-close" viewBox="0 0 14 14"><path d="M14 1.41L12.59 0 7 5.59 1.41 0 0 1.41 5.59 7 0 12.59 1.41 14 7 8.41 12.59 14 14 12.59 8.41 7 14 1.41z"/></symbol><symbol id="icon-element1" viewBox="0 0 10 219"><path d="M5.5 217.009a.5.5 0 00-1 0h1zm-1-3.981a.5.5 0 001 0h-1zm1-3.982a.5.5 0 00-1 0h1zm-1-3.981a.5.5 0 001 0h-1zm1-3.982a.5.5 0 00-1 0h1zm-1-3.981a.5.5 0 001 0h-1zm1-3.982a.5.5 0 00-1 0h1zm-1-3.981a.5.5 0 001 0h-1zm1-3.982a.5.5 0 00-1 0h1zm-1-3.981a.5.5 0 001 0h-1zm1-3.982a.5.5 0 00-1 0h1zm-1-3.981a.5.5 0 001 0h-1zm1-3.982a.5.5 0 00-1 0h1zm-1-3.981a.5.5 0 001 0h-1zm1-3.981a.5.5 0 10-1 0h1zm-1-3.982a.5.5 0 001 0h-1zm1-3.981a.5.5 0 10-1 0h1zm-1-3.982a.5.5 0 001 0h-1zm1-3.981a.5.5 0 10-1 0h1zm-1-3.982a.5.5 0 001 0h-1zm1-3.981a.5.5 0 10-1 0h1zm-1-3.982a.5.5 0 001 0h-1zm1-3.981a.5.5 0 00-1 0h1zm-1-3.982a.5.5 0 001 0h-1zm1-3.981a.5.5 0 00-1 0h1zm-1-3.982a.5.5 0 001 0h-1zm1-3.981a.5.5 0 00-1 0h1zm-1-3.982a.5.5 0 001 0h-1zm1-3.981a.5.5 0 00-1 0h1zm-1-3.982a.5.5 0 001 0h-1zm1-3.981a.5.5 0 10-1 0h1zm-1-3.982a.5.5 0 001 0h-1zm1-3.981a.5.5 0 00-1 0h1zm-1-3.982a.5.5 0 101 0h-1zm1-3.981a.5.5 0 10-1 0h1zm-1-3.982a.5.5 0 001 0h-1zm1-3.981a.5.5 0 00-1 0h1zm-1-3.982a.5.5 0 101 0h-1zm1-3.981a.5.5 0 10-1 0h1zm-1-3.981a.5.5 0 001 0h-1zm1-3.982a.5.5 0 00-1 0h1zm-1-3.981a.5.5 0 101 0h-1zm1-3.982a.5.5 0 10-1 0h1zm-1-3.981a.5.5 0 001 0h-1zm1-3.982a.5.5 0 00-1 0h1zm-1-3.981a.5.5 0 101 0h-1zm1-3.982a.5.5 0 10-1 0h1zm-1-3.981a.5.5 0 001 0h-1zm1-3.982a.5.5 0 00-1 0h1zm-1-3.981a.5.5 0 101 0h-1zm1-3.982a.5.5 0 10-1 0h1zm-1-3.981a.5.5 0 001 0h-1zm1-3.982a.5.5 0 00-1 0h1zm-1-3.981a.5.5 0 001 0h-1zM5.5 219v-1.991h-1V219h1zm0-5.972v-3.982h-1v3.982h1zm0-7.963v-3.982h-1v3.982h1zm0-7.963v-3.982h-1v3.982h1zm0-7.963v-3.982h-1v3.982h1zm0-7.963v-3.982h-1v3.982h1zm0-7.963v-3.982h-1v3.982h1zm0-7.963v-3.981h-1v3.981h1zm0-7.963v-3.981h-1v3.981h1zm0-7.963v-3.981h-1v3.981h1zm0-7.963v-3.981h-1v3.981h1zm0-7.963v-3.981h-1v3.981h1zm0-7.963v-3.981h-1v3.981h1zm0-7.963v-3.981h-1v3.981h1zm0-7.963v-3.981h-1v3.981h1zm0-7.963v-3.981h-1v3.981h1zm0-7.963v-3.981h-1v3.981h1zm0-7.963V81.64h-1v3.981h1zm0-7.963v-3.981h-1v3.981h1zm0-7.963v-3.981h-1v3.981h1zm0-7.963V57.75h-1v3.981h1zm0-7.962v-3.982h-1v3.982h1zm0-7.963v-3.982h-1v3.982h1zm0-7.963V33.86h-1v3.982h1zm0-7.963v-3.982h-1v3.982h1zm0-7.963v-3.982h-1v3.982h1zm0-7.963V9.972h-1v3.982h1zm0-7.963V4h-1v1.99h1z" fill-opacity="0.5"/><path d="M10 5A5 5 0 110 5a5 5 0 0110 0z"/></symbol><symbol id="icon-element_1" viewBox="0 0 10 219"><path d="M5.5 217.009a.5.5 0 00-1 0h1zm-1-3.981a.5.5 0 001 0h-1zm1-3.982a.5.5 0 00-1 0h1zm-1-3.981a.5.5 0 001 0h-1zm1-3.982a.5.5 0 00-1 0h1zm-1-3.981a.5.5 0 001 0h-1zm1-3.982a.5.5 0 00-1 0h1zm-1-3.981a.5.5 0 001 0h-1zm1-3.982a.5.5 0 00-1 0h1zm-1-3.981a.5.5 0 001 0h-1zm1-3.982a.5.5 0 00-1 0h1zm-1-3.981a.5.5 0 001 0h-1zm1-3.982a.5.5 0 00-1 0h1zm-1-3.981a.5.5 0 001 0h-1zm1-3.981a.5.5 0 10-1 0h1zm-1-3.982a.5.5 0 001 0h-1zm1-3.981a.5.5 0 10-1 0h1zm-1-3.982a.5.5 0 001 0h-1zm1-3.981a.5.5 0 10-1 0h1zm-1-3.982a.5.5 0 001 0h-1zm1-3.981a.5.5 0 10-1 0h1zm-1-3.982a.5.5 0 001 0h-1zm1-3.981a.5.5 0 00-1 0h1zm-1-3.982a.5.5 0 001 0h-1zm1-3.981a.5.5 0 00-1 0h1zm-1-3.982a.5.5 0 001 0h-1zm1-3.981a.5.5 0 00-1 0h1zm-1-3.982a.5.5 0 001 0h-1zm1-3.981a.5.5 0 00-1 0h1zm-1-3.982a.5.5 0 001 0h-1zm1-3.981a.5.5 0 10-1 0h1zm-1-3.982a.5.5 0 001 0h-1zm1-3.981a.5.5 0 00-1 0h1zm-1-3.982a.5.5 0 101 0h-1zm1-3.981a.5.5 0 10-1 0h1zm-1-3.982a.5.5 0 001 0h-1zm1-3.981a.5.5 0 00-1 0h1zm-1-3.982a.5.5 0 101 0h-1zm1-3.981a.5.5 0 10-1 0h1zm-1-3.981a.5.5 0 001 0h-1zm1-3.982a.5.5 0 00-1 0h1zm-1-3.981a.5.5 0 101 0h-1zm1-3.982a.5.5 0 10-1 0h1zm-1-3.981a.5.5 0 001 0h-1zm1-3.982a.5.5 0 00-1 0h1zm-1-3.981a.5.5 0 101 0h-1zm1-3.982a.5.5 0 10-1 0h1zm-1-3.981a.5.5 0 001 0h-1zm1-3.982a.5.5 0 00-1 0h1zm-1-3.981a.5.5 0 101 0h-1zm1-3.982a.5.5 0 10-1 0h1zm-1-3.981a.5.5 0 001 0h-1zm1-3.982a.5.5 0 00-1 0h1zm-1-3.981a.5.5 0 001 0h-1zM5.5 219v-1.991h-1V219h1zm0-5.972v-3.982h-1v3.982h1zm0-7.963v-3.982h-1v3.982h1zm0-7.963v-3.982h-1v3.982h1zm0-7.963v-3.982h-1v3.982h1zm0-7.963v-3.982h-1v3.982h1zm0-7.963v-3.982h-1v3.982h1zm0-7.963v-3.981h-1v3.981h1zm0-7.963v-3.981h-1v3.981h1zm0-7.963v-3.981h-1v3.981h1zm0-7.963v-3.981h-1v3.981h1zm0-7.963v-3.981h-1v3.981h1zm0-7.963v-3.981h-1v3.981h1zm0-7.963v-3.981h-1v3.981h1zm0-7.963v-3.981h-1v3.981h1zm0-7.963v-3.981h-1v3.981h1zm0-7.963v-3.981h-1v3.981h1zm0-7.963V81.64h-1v3.981h1zm0-7.963v-3.981h-1v3.981h1zm0-7.963v-3.981h-1v3.981h1zm0-7.963V57.75h-1v3.981h1zm0-7.962v-3.982h-1v3.982h1zm0-7.963v-3.982h-1v3.982h1zm0-7.963V33.86h-1v3.982h1zm0-7.963v-3.982h-1v3.982h1zm0-7.963v-3.982h-1v3.982h1zm0-7.963V9.972h-1v3.982h1zm0-7.963V4h-1v1.99h1z" fill-opacity="0.5"/><path d="M10 5A5 5 0 110 5a5 5 0 0110 0z"/></symbol><symbol id="icon-element_10" viewBox="0 0 10 153"><path d="M5.5 151.014a.5.5 0 00-1 0h1zm-1-3.972a.5.5 0 001 0h-1zm1-3.973a.5.5 0 00-1 0h1zm-1-3.972a.5.5 0 001 0h-1zm1-3.972a.5.5 0 00-1 0h1zm-1-3.972a.5.5 0 001 0h-1zm1-3.972a.5.5 0 10-1 0h1zm-1-3.973a.5.5 0 001 0h-1zm1-3.972a.5.5 0 00-1 0h1zm-1-3.972a.5.5 0 001 0h-1zm1-3.972a.5.5 0 00-1 0h1zm-1-3.973a.5.5 0 101 0h-1zm1-3.972a.5.5 0 00-1 0h1zm-1-3.972a.5.5 0 001 0h-1zm1-3.972a.5.5 0 10-1 0h1zm-1-3.972a.5.5 0 001 0h-1zm1-3.973a.5.5 0 00-1 0h1zm-1-3.972a.5.5 0 101 0h-1zm1-3.972a.5.5 0 00-1 0h1zm-1-3.972a.5.5 0 001 0h-1zm1-3.972a.5.5 0 10-1 0h1zm-1-3.973a.5.5 0 101 0h-1zm1-3.972a.5.5 0 00-1 0h1zm-1-3.972a.5.5 0 001 0h-1zm1-3.972a.5.5 0 10-1 0h1zm-1-3.973a.5.5 0 101 0h-1zm1-3.972a.5.5 0 00-1 0h1zm-1-3.972a.5.5 0 101 0h-1zm1-3.972a.5.5 0 10-1 0h1zm-1-3.973a.5.5 0 001 0h-1zm1-3.972a.5.5 0 00-1 0h1zm-1-3.972a.5.5 0 101 0h-1zm1-3.972a.5.5 0 00-1 0h1zm-1-3.972a.5.5 0 001 0h-1zm1-3.973a.5.5 0 00-1 0h1zm-1-3.972a.5.5 0 001 0h-1zM5.5 153v-1.986h-1V153h1zm0-5.958v-3.973h-1v3.973h1zm0-7.945v-3.972h-1v3.972h1zm0-7.944v-3.972h-1v3.972h1zm0-7.945v-3.972h-1v3.972h1zm0-7.944v-3.972h-1v3.972h1zm0-7.945v-3.972h-1v3.972h1zm0-7.944v-3.972h-1v3.972h1zm0-7.944v-3.973h-1v3.973h1zm0-7.945v-3.972h-1v3.972h1zm0-7.944V71.57h-1v3.972h1zm0-7.945v-3.972h-1v3.972h1zm0-7.944V55.68h-1v3.972h1zm0-7.945v-3.972h-1v3.972h1zm0-7.944v-3.972h-1v3.972h1zm0-7.945v-3.972h-1v3.972h1zm0-7.944v-3.972h-1v3.972h1zm0-7.944v-3.973h-1v3.973h1zm0-7.945V10h-1v1.986h1z" fill-opacity="0.5"/><circle cx="5" cy="5" r="5"/></symbol><symbol id="icon-element_3" viewBox="0 0 10 141"><path d="M5.5 138.953a.5.5 0 00-1 0h1zm-1-4.094a.5.5 0 101 0h-1zm1-4.093a.5.5 0 10-1 0h1zm-1-4.094a.5.5 0 001 0h-1zm1-4.094a.5.5 0 00-1 0h1zm-1-4.094a.5.5 0 101 0h-1zm1-4.093a.5.5 0 10-1 0h1zm-1-4.094a.5.5 0 001 0h-1zm1-4.094a.5.5 0 00-1 0h1zm-1-4.094a.5.5 0 101 0h-1zm1-4.093a.5.5 0 00-1 0h1zm-1-4.094a.5.5 0 001 0h-1zm1-4.094a.5.5 0 00-1 0h1zm-1-4.094a.5.5 0 001 0h-1zm1-4.093a.5.5 0 00-1 0h1zm-1-4.094a.5.5 0 001 0h-1zm1-4.094a.5.5 0 00-1 0h1zm-1-4.094a.5.5 0 001 0h-1zm1-4.093a.5.5 0 00-1 0h1zm-1-4.094a.5.5 0 001 0h-1zm1-4.094a.5.5 0 00-1 0h1zm-1-4.094a.5.5 0 001 0h-1zm1-4.093a.5.5 0 00-1 0h1zm-1-4.094a.5.5 0 001 0h-1zm1-4.094a.5.5 0 00-1 0h1zm-1-4.094a.5.5 0 001 0h-1zm1-4.093a.5.5 0 00-1 0h1zm-1-4.094a.5.5 0 001 0h-1zm1-4.094a.5.5 0 00-1 0h1zm-1-4.094a.5.5 0 001 0h-1zm1-4.093a.5.5 0 00-1 0h1zm-1-4.094a.5.5 0 001 0h-1zM5.5 141v-2.047h-1V141h1zm0-6.141v-4.093h-1v4.093h1zm0-8.187v-4.094h-1v4.094h1zm0-8.188v-4.093h-1v4.093h1zm0-8.187v-4.094h-1v4.094h1zm0-8.188v-4.093h-1v4.093h1zm0-8.187v-4.094h-1v4.094h1zm0-8.188v-4.093h-1v4.093h1zm0-8.187v-4.094h-1v4.094h1zm0-8.188v-4.093h-1v4.093h1zm0-8.187v-4.094h-1v4.094h1zm0-8.188v-4.093h-1v4.093h1zm0-8.187v-4.094h-1v4.094h1zm0-8.188v-4.093h-1v4.093h1zm0-8.187v-4.094h-1v4.094h1zm0-8.188v-4.093h-1v4.093h1zm0-8.187V10h-1v2.047h1z" fill-opacity="0.5"/><circle cx="5" cy="5" r="5"/></symbol><symbol id="icon-element_5" viewBox="0 0 10 275"><path d="M5 274V10" stroke-opacity="0.5" stroke-linecap="round" stroke-dasharray="4 4"/><circle cx="5" cy="5" r="5"/></symbol><symbol id="icon-element_7" viewBox="0 0 10 129"><path d="M5.5 127.017a.5.5 0 00-1 0h1zm-1-3.967a.5.5 0 001 0h-1zm1-3.967a.5.5 0 00-1 0h1zm-1-3.966a.5.5 0 001 0h-1zm1-3.967a.5.5 0 00-1 0h1zm-1-3.967a.5.5 0 001 0h-1zm1-3.966a.5.5 0 00-1 0h1zm-1-3.967a.5.5 0 001 0h-1zm1-3.967a.5.5 0 00-1 0h1zm-1-3.966a.5.5 0 001 0h-1zm1-3.967a.5.5 0 00-1 0h1zm-1-3.967a.5.5 0 101 0h-1zm1-3.966a.5.5 0 10-1 0h1zm-1-3.967a.5.5 0 001 0h-1zm1-3.967a.5.5 0 00-1 0h1zm-1-3.966a.5.5 0 001 0h-1zm1-3.967a.5.5 0 00-1 0h1zm-1-3.967a.5.5 0 101 0h-1zm1-3.966a.5.5 0 10-1 0h1zm-1-3.967a.5.5 0 001 0h-1zm1-3.967a.5.5 0 00-1 0h1zm-1-3.966a.5.5 0 001 0h-1zm1-3.967a.5.5 0 00-1 0h1zm-1-3.967a.5.5 0 101 0h-1zm1-3.966a.5.5 0 10-1 0h1zm-1-3.967a.5.5 0 001 0h-1zm1-3.967a.5.5 0 00-1 0h1zm-1-3.966a.5.5 0 001 0h-1zm1-3.967a.5.5 0 00-1 0h1zm-1-3.967a.5.5 0 101 0h-1zM5.5 129v-1.983h-1V129h1zm0-5.95v-3.967h-1v3.967h1zm0-7.933v-3.967h-1v3.967h1zm0-7.934v-3.966h-1v3.966h1zm0-7.933v-3.967h-1v3.967h1zm0-7.933V87.35h-1v3.967h1zm0-7.934v-3.966h-1v3.966h1zm0-7.933v-3.967h-1v3.967h1zm0-7.933V63.55h-1v3.967h1zm0-7.934v-3.966h-1v3.966h1zm0-7.933v-3.967h-1v3.967h1zm0-7.933V39.75h-1v3.967h1zm0-7.934v-3.966h-1v3.966h1zm0-7.933v-3.967h-1v3.967h1zm0-7.933V15.95h-1v3.967h1zm0-7.934V10h-1v1.983h1z" fill-opacity="0.5"/><circle cx="5" cy="5" r="5"/></symbol><symbol id="icon-element_9" viewBox="0 0 10 264"><path d="M5 263V9" stroke-opacity="0.5" stroke-linecap="round" stroke-dasharray="4 4"/><circle cx="5" cy="5" r="5"/></symbol><symbol id="icon-e_mail" viewBox="0 0 24 18"><path fill-rule="evenodd" clip-rule="evenodd" d="M22 0H2C.9 0 0 .9 0 2v14c0 1.1.9 2 2 2h20c1.1 0 1.99-.9 1.99-2L24 2c0-1.1-.9-2-2-2zm-1 5V4l-3 2-3-2v1l3 2 3-2zM11 6c0-1.66-1.34-3-3-3S5 4.34 5 6s1.34 3 3 3 3-1.34 3-3zm-9 9v-1c0-2 4-3.1 6-3.1s6 1.1 6 3.1v1H2zm12-6h8V3h-8v6z"/></symbol><symbol id="icon-line" viewBox="0 0 2 1037"><path fill-rule="evenodd" clip-rule="evenodd" d="M.5 1037V0h1v1037h-1z"/></symbol><symbol id="icon-menu" viewBox="0 0 40 26"><path fill-rule="evenodd" clip-rule="evenodd" d="M.714 4.286V0h38.572v4.286H.714zM.714 15h38.572v-4.286H.714V15zm0 10.714h38.572V21.43H.714v4.285z"/></symbol><symbol id="icon-phone" viewBox="0 0 24 18"><path fill-rule="evenodd" clip-rule="evenodd" d="M2 0h20c1.1 0 2 .9 2 2l-.01 14c0 1.1-.89 2-1.99 2H2c-1.1 0-2-.9-2-2V2C0 .9.9 0 2 0zm9 6c0-1.66-1.34-3-3-3S5 4.34 5 6s1.34 3 3 3 3-1.34 3-3zm-9 9v-1c0-2 4-3.1 6-3.1s6 1.1 6 3.1v1H2zm17.49-4h-1.64c-.22-.63-.35-1.3-.35-2s.13-1.37.35-2h1.64L21 5l-1.99-1.99A7.474 7.474 0 0016.28 7c-.18.64-.28 1.31-.28 2s.1 1.36.28 2a7.512 7.512 0 002.73 3.99L21 13l-1.51-2z"/></symbol><symbol id="icon-phone_header" viewBox="0 0 20 20"><path d="M19.273.94L15.211.023a.949.949 0 00-1.074.531l-1.875 4.28a.902.902 0 00.27 1.07L14.898 7.8c-1.407 2.93-3.864 5.368-6.922 6.77l-1.938-2.315a.95.95 0 00-1.093-.264L.57 13.826a.923.923 0 00-.547 1.054l.937 3.975c.098.412.473.71.914.71C11.88 19.565 20 11.636 20 1.835a.92.92 0 00-.727-.895z"/></symbol><symbol id="icon-schedule" viewBox="0 0 24 24"><path fill-rule="evenodd" clip-rule="evenodd" d="M11.988 0C5.364 0 0 5.376 0 12s5.364 12 11.988 12C18.624 24 24 18.624 24 12S18.624 0 11.988 0zM12 21.6A9.597 9.597 0 012.4 12c0-5.304 4.296-9.6 9.6-9.6 5.304 0 9.6 4.296 9.6 9.6 0 5.304-4.296 9.6-9.6 9.6zM10.8 6h1.8v6.3l5.4 3.204-.9 1.476-6.3-3.78V6z"/></symbol> <view id="icon-arrow_left-view-blue" viewBox="0 0 26 9"/><view id="icon-arrow_left-view-orange" viewBox="0 19 26 9"/><view id="icon-arrow_left-view-white" viewBox="0 38 26 9"/><view id="icon-arrow_left-view-dark" viewBox="0 57 26 9"/><view id="icon-arrow_left-view-black" viewBox="0 76 26 9"/><view id="icon-arrow_right-view-blue" viewBox="0 95 26 9"/><view id="icon-arrow_right-view-orange" viewBox="0 114 26 9"/><view id="icon-arrow_right-view-white" viewBox="0 133 26 9"/><view id="icon-arrow_right-view-dark" viewBox="0 152 26 9"/><view id="icon-arrow_right-view-black" viewBox="0 171 26 9"/><view id="icon-benefit_1-view-blue" viewBox="0 190 150 150"/><view id="icon-benefit_1-view-orange" viewBox="0 350 150 150"/><view id="icon-benefit_1-view-white" viewBox="0 510 150 150"/><view id="icon-benefit_1-view-dark" viewBox="0 670 150 150"/><view id="icon-benefit_1-view-black" viewBox="0 830 150 150"/><view id="icon-benefit_2-view-blue" viewBox="0 990 104 99"/><view id="icon-benefit_2-view-orange" viewBox="0 1099 104 99"/><view id="icon-benefit_2-view-white" viewBox="0 1208 104 99"/><view id="icon-benefit_2-view-dark" viewBox="0 1317 104 99"/><view id="icon-benefit_2-view-black" viewBox="0 1426 104 99"/><view id="icon-benefit_3-view-blue" viewBox="0 1535 113 64"/><view id="icon-benefit_3-view-orange" viewBox="0 1609 113 64"/><view id="icon-benefit_3-view-white" viewBox="0 1683 113 64"/><view id="icon-benefit_3-view-dark" viewBox="0 1757 113 64"/><view id="icon-benefit_3-view-black" viewBox="0 1831 113 64"/><view id="icon-benefit_4-view-blue" viewBox="0 1905 99 98"/><view id="icon-benefit_4-view-orange" viewBox="0 2013 99 98"/><view id="icon-benefit_4-view-white" viewBox="0 2121 99 98"/><view id="icon-benefit_4-view-dark" viewBox="0 2229 99 98"/><view id="icon-benefit_4-view-black" viewBox="0 2337 99 98"/><view id="icon-benefit_5-view-blue" viewBox="0 2445 150 150"/><view id="icon-benefit_5-view-orange" viewBox="0 2605 150 150"/><view id="icon-benefit_5-view-white" viewBox="0 2765 150 150"/><view id="icon-benefit_5-view-dark" viewBox="0 2925 150 150"/><view id="icon-benefit_5-view-black" viewBox="0 3085 150 150"/><view id="icon-close-view-blue" viewBox="0 3245 14 14"/><view id="icon-close-view-orange" viewBox="0 3269 14 14"/><view id="icon-close-view-white" viewBox="0 3293 14 14"/><view id="icon-close-view-dark" viewBox="0 3317 14 14"/><view id="icon-close-view-black" viewBox="0 3341 14 14"/><view id="icon-element1-view-blue" viewBox="0 3365 10 219"/><view id="icon-element1-view-orange" viewBox="0 3594 10 219"/><view id="icon-element1-view-white" viewBox="0 3823 10 219"/><view id="icon-element1-view-dark" viewBox="0 4052 10 219"/><view id="icon-element1-view-black" viewBox="0 4281 10 219"/><view id="icon-element_1-view-blue" viewBox="0 4510 10 219"/><view id="icon-element_1-view-orange" viewBox="0 4739 10 219"/><view id="icon-element_1-view-white" viewBox="0 4968 10 219"/><view id="icon-element_1-view-dark" viewBox="0 5197 10 219"/><view id="icon-element_1-view-black" viewBox="0 5426 10 219"/><view id="icon-element_10-view-blue" viewBox="0 5655 10 153"/><view id="icon-element_10-view-orange" viewBox="0 5818 10 153"/><view id="icon-element_10-view-white" viewBox="0 5981 10 153"/><view id="icon-element_10-view-dark" viewBox="0 6144 10 153"/><view id="icon-element_10-view-black" viewBox="0 6307 10 153"/><view id="icon-element_3-view-blue" viewBox="0 6470 10 141"/><view id="icon-element_3-view-orange" viewBox="0 6621 10 141"/><view id="icon-element_3-view-white" viewBox="0 6772 10 141"/><view id="icon-element_3-view-dark" viewBox="0 6923 10 141"/><view id="icon-element_3-view-black" viewBox="0 7074 10 141"/><view id="icon-element_5-view-blue" viewBox="0 7225 10 275"/><view id="icon-element_5-view-orange" viewBox="0 7510 10 275"/><view id="icon-element_5-view-white" viewBox="0 7795 10 275"/><view id="icon-element_5-view-dark" viewBox="0 8080 10 275"/><view id="icon-element_5-view-black" viewBox="0 8365 10 275"/><view id="icon-element_7-view-blue" viewBox="0 8650 10 129"/><view id="icon-element_7-view-orange" viewBox="0 8789 10 129"/><view id="icon-element_7-view-white" viewBox="0 8928 10 129"/><view id="icon-element_7-view-dark" viewBox="0 9067 10 129"/><view id="icon-element_7-view-black" viewBox="0 9206 10 129"/><view id="icon-element_9-view-blue" viewBox="0 9345 10 264"/><view id="icon-element_9-view-orange" viewBox="0 9619 10 264"/><view id="icon-element_9-view-white" viewBox="0 9893 10 264"/><view id="icon-element_9-view-dark" viewBox="0 10167 10 264"/><view id="icon-element_9-view-black" viewBox="0 10441 10 264"/><view id="icon-e_mail-view-blue" viewBox="0 10715 24 18"/><view id="icon-e_mail-view-orange" viewBox="0 10743 24 18"/><view id="icon-e_mail-view-white" viewBox="0 10771 24 18"/><view id="icon-e_mail-view-dark" viewBox="0 10799 24 18"/><view id="icon-e_mail-view-black" viewBox="0 10827 24 18"/><view id="icon-line-view-blue" viewBox="0 10855 2 1037"/><view id="icon-line-view-orange" viewBox="0 11902 2 1037"/><view id="icon-line-view-white" viewBox="0 12949 2 1037"/><view id="icon-line-view-dark" viewBox="0 13996 2 1037"/><view id="icon-line-view-black" viewBox="0 15043 2 1037"/><view id="icon-menu-view-blue" viewBox="0 16090 40 26"/><view id="icon-menu-view-orange" viewBox="0 16126 40 26"/><view id="icon-menu-view-white" viewBox="0 16162 40 26"/><view id="icon-menu-view-dark" viewBox="0 16198 40 26"/><view id="icon-menu-view-black" viewBox="0 16234 40 26"/><view id="icon-phone-view-blue" viewBox="0 16270 24 18"/><view id="icon-phone-view-orange" viewBox="0 16298 24 18"/><view id="icon-phone-view-white" viewBox="0 16326 24 18"/><view id="icon-phone-view-dark" viewBox="0 16354 24 18"/><view id="icon-phone-view-black" viewBox="0 16382 24 18"/><view id="icon-phone_header-view-blue" viewBox="0 16410 20 20"/><view id="icon-phone_header-view-orange" viewBox="0 16440 20 20"/><view id="icon-phone_header-view-white" viewBox="0 16470 20 20"/><view id="icon-phone_header-view-dark" viewBox="0 16500 20 20"/><view id="icon-phone_header-view-black" viewBox="0 16530 20 20"/><view id="icon-schedule-view-blue" viewBox="0 16560 24 24"/><view id="icon-schedule-view-orange" viewBox="0 16594 24 24"/><view id="icon-schedule-view-white" viewBox="0 16628 24 24"/><view id="icon-schedule-view-dark" viewBox="0 16662 24 24"/><view id="icon-schedule-view-black" viewBox="0 16696 24 24"/> <use xlink:href="#icon-arrow_left" x="0" y="0" width="26" height="9" style="fill:#614EFD"/><use xlink:href="#icon-arrow_left" x="0" y="19" width="26" height="9" style="fill:#FD8F3A"/><use xlink:href="#icon-arrow_left" x="0" y="38" width="26" height="9" style="fill:#ffffff"/><use xlink:href="#icon-arrow_left" x="0" y="57" width="26" height="9" style="fill:#525252"/><use xlink:href="#icon-arrow_left" x="0" y="76" width="26" height="9" style="fill:#000000"/><use xlink:href="#icon-arrow_right" x="0" y="95" width="26" height="9" style="fill:#614EFD"/><use xlink:href="#icon-arrow_right" x="0" y="114" width="26" height="9" style="fill:#FD8F3A"/><use xlink:href="#icon-arrow_right" x="0" y="133" width="26" height="9" style="fill:#ffffff"/><use xlink:href="#icon-arrow_right" x="0" y="152" width="26" height="9" style="fill:#525252"/><use xlink:href="#icon-arrow_right" x="0" y="171" width="26" height="9" style="fill:#000000"/><use xlink:href="#icon-benefit_1" x="0" y="190" width="150" height="150" style="fill:#614EFD"/><use xlink:href="#icon-benefit_1" x="0" y="350" width="150" height="150" style="fill:#FD8F3A"/><use xlink:href="#icon-benefit_1" x="0" y="510" width="150" height="150" style="fill:#ffffff"/><use xlink:href="#icon-benefit_1" x="0" y="670" width="150" height="150" style="fill:#525252"/><use xlink:href="#icon-benefit_1" x="0" y="830" width="150" height="150" style="fill:#000000"/><use xlink:href="#icon-benefit_2" x="0" y="990" width="104" height="99" style="fill:#614EFD"/><use xlink:href="#icon-benefit_2" x="0" y="1099" width="104" height="99" style="fill:#FD8F3A"/><use xlink:href="#icon-benefit_2" x="0" y="1208" width="104" height="99" style="fill:#ffffff"/><use xlink:href="#icon-benefit_2" x="0" y="1317" width="104" height="99" style="fill:#525252"/><use xlink:href="#icon-benefit_2" x="0" y="1426" width="104" height="99" style="fill:#000000"/><use xlink:href="#icon-benefit_3" x="0" y="1535" width="113" height="64" style="fill:#614EFD"/><use xlink:href="#icon-benefit_3" x="0" y="1609" width="113" height="64" style="fill:#FD8F3A"/><use xlink:href="#icon-benefit_3" x="0" y="1683" width="113" height="64" style="fill:#ffffff"/><use xlink:href="#icon-benefit_3" x="0" y="1757" width="113" height="64" style="fill:#525252"/><use xlink:href="#icon-benefit_3" x="0" y="1831" width="113" height="64" style="fill:#000000"/><use xlink:href="#icon-benefit_4" x="0" y="1905" width="99" height="98" style="fill:#614EFD"/><use xlink:href="#icon-benefit_4" x="0" y="2013" width="99" height="98" style="fill:#FD8F3A"/><use xlink:href="#icon-benefit_4" x="0" y="2121" width="99" height="98" style="fill:#ffffff"/><use xlink:href="#icon-benefit_4" x="0" y="2229" width="99" height="98" style="fill:#525252"/><use xlink:href="#icon-benefit_4" x="0" y="2337" width="99" height="98" style="fill:#000000"/><use xlink:href="#icon-benefit_5" x="0" y="2445" width="150" height="150" style="fill:#614EFD"/><use xlink:href="#icon-benefit_5" x="0" y="2605" width="150" height="150" style="fill:#FD8F3A"/><use xlink:href="#icon-benefit_5" x="0" y="2765" width="150" height="150" style="fill:#ffffff"/><use xlink:href="#icon-benefit_5" x="0" y="2925" width="150" height="150" style="fill:#525252"/><use xlink:href="#icon-benefit_5" x="0" y="3085" width="150" height="150" style="fill:#000000"/><use xlink:href="#icon-close" x="0" y="3245" width="14" height="14" style="fill:#614EFD"/><use xlink:href="#icon-close" x="0" y="3269" width="14" height="14" style="fill:#FD8F3A"/><use xlink:href="#icon-close" x="0" y="3293" width="14" height="14" style="fill:#ffffff"/><use xlink:href="#icon-close" x="0" y="3317" width="14" height="14" style="fill:#525252"/><use xlink:href="#icon-close" x="0" y="3341" width="14" height="14" style="fill:#000000"/><use xlink:href="#icon-element1" x="0" y="3365" width="10" height="219" style="fill:#614EFD"/><use xlink:href="#icon-element1" x="0" y="3594" width="10" height="219" style="fill:#FD8F3A"/><use xlink:href="#icon-element1" x="0" y="3823" width="10" height="219" style="fill:#ffffff"/><use xlink:href="#icon-element1" x="0" y="4052" width="10" height="219" style="fill:#525252"/><use xlink:href="#icon-element1" x="0" y="4281" width="10" height="219" style="fill:#000000"/><use xlink:href="#icon-element_1" x="0" y="4510" width="10" height="219" style="fill:#614EFD"/><use xlink:href="#icon-element_1" x="0" y="4739" width="10" height="219" style="fill:#FD8F3A"/><use xlink:href="#icon-element_1" x="0" y="4968" width="10" height="219" style="fill:#ffffff"/><use xlink:href="#icon-element_1" x="0" y="5197" width="10" height="219" style="fill:#525252"/><use xlink:href="#icon-element_1" x="0" y="5426" width="10" height="219" style="fill:#000000"/><use xlink:href="#icon-element_10" x="0" y="5655" width="10" height="153" style="fill:#614EFD"/><use xlink:href="#icon-element_10" x="0" y="5818" width="10" height="153" style="fill:#FD8F3A"/><use xlink:href="#icon-element_10" x="0" y="5981" width="10" height="153" style="fill:#ffffff"/><use xlink:href="#icon-element_10" x="0" y="6144" width="10" height="153" style="fill:#525252"/><use xlink:href="#icon-element_10" x="0" y="6307" width="10" height="153" style="fill:#000000"/><use xlink:href="#icon-element_3" x="0" y="6470" width="10" height="141" style="fill:#614EFD"/><use xlink:href="#icon-element_3" x="0" y="6621" width="10" height="141" style="fill:#FD8F3A"/><use xlink:href="#icon-element_3" x="0" y="6772" width="10" height="141" style="fill:#ffffff"/><use xlink:href="#icon-element_3" x="0" y="6923" width="10" height="141" style="fill:#525252"/><use xlink:href="#icon-element_3" x="0" y="7074" width="10" height="141" style="fill:#000000"/><use xlink:href="#icon-element_5" x="0" y="7225" width="10" height="275" style="fill:#614EFD"/><use xlink:href="#icon-element_5" x="0" y="7510" width="10" height="275" style="fill:#FD8F3A"/><use xlink:href="#icon-element_5" x="0" y="7795" width="10" height="275" style="fill:#ffffff"/><use xlink:href="#icon-element_5" x="0" y="8080" width="10" height="275" style="fill:#525252"/><use xlink:href="#icon-element_5" x="0" y="8365" width="10" height="275" style="fill:#000000"/><use xlink:href="#icon-element_7" x="0" y="8650" width="10" height="129" style="fill:#614EFD"/><use xlink:href="#icon-element_7" x="0" y="8789" width="10" height="129" style="fill:#FD8F3A"/><use xlink:href="#icon-element_7" x="0" y="8928" width="10" height="129" style="fill:#ffffff"/><use xlink:href="#icon-element_7" x="0" y="9067" width="10" height="129" style="fill:#525252"/><use xlink:href="#icon-element_7" x="0" y="9206" width="10" height="129" style="fill:#000000"/><use xlink:href="#icon-element_9" x="0" y="9345" width="10" height="264" style="fill:#614EFD"/><use xlink:href="#icon-element_9" x="0" y="9619" width="10" height="264" style="fill:#FD8F3A"/><use xlink:href="#icon-element_9" x="0" y="9893" width="10" height="264" style="fill:#ffffff"/><use xlink:href="#icon-element_9" x="0" y="10167" width="10" height="264" style="fill:#525252"/><use xlink:href="#icon-element_9" x="0" y="10441" width="10" height="264" style="fill:#000000"/><use xlink:href="#icon-e_mail" x="0" y="10715" width="24" height="18" style="fill:#614EFD"/><use xlink:href="#icon-e_mail" x="0" y="10743" width="24" height="18" style="fill:#FD8F3A"/><use xlink:href="#icon-e_mail" x="0" y="10771" width="24" height="18" style="fill:#ffffff"/><use xlink:href="#icon-e_mail" x="0" y="10799" width="24" height="18" style="fill:#525252"/><use xlink:href="#icon-e_mail" x="0" y="10827" width="24" height="18" style="fill:#000000"/><use xlink:href="#icon-line" x="0" y="10855" width="2" height="1037" style="fill:#614EFD"/><use xlink:href="#icon-line" x="0" y="11902" width="2" height="1037" style="fill:#FD8F3A"/><use xlink:href="#icon-line" x="0" y="12949" width="2" height="1037" style="fill:#ffffff"/><use xlink:href="#icon-line" x="0" y="13996" width="2" height="1037" style="fill:#525252"/><use xlink:href="#icon-line" x="0" y="15043" width="2" height="1037" style="fill:#000000"/><use xlink:href="#icon-menu" x="0" y="16090" width="40" height="26" style="fill:#614EFD"/><use xlink:href="#icon-menu" x="0" y="16126" width="40" height="26" style="fill:#FD8F3A"/><use xlink:href="#icon-menu" x="0" y="16162" width="40" height="26" style="fill:#ffffff"/><use xlink:href="#icon-menu" x="0" y="16198" width="40" height="26" style="fill:#525252"/><use xlink:href="#icon-menu" x="0" y="16234" width="40" height="26" style="fill:#000000"/><use xlink:href="#icon-phone" x="0" y="16270" width="24" height="18" style="fill:#614EFD"/><use xlink:href="#icon-phone" x="0" y="16298" width="24" height="18" style="fill:#FD8F3A"/><use xlink:href="#icon-phone" x="0" y="16326" width="24" height="18" style="fill:#ffffff"/><use xlink:href="#icon-phone" x="0" y="16354" width="24" height="18" style="fill:#525252"/><use xlink:href="#icon-phone" x="0" y="16382" width="24" height="18" style="fill:#000000"/><use xlink:href="#icon-phone_header" x="0" y="16410" width="20" height="20" style="fill:#614EFD"/><use xlink:href="#icon-phone_header" x="0" y="16440" width="20" height="20" style="fill:#FD8F3A"/><use xlink:href="#icon-phone_header" x="0" y="16470" width="20" height="20" style="fill:#ffffff"/><use xlink:href="#icon-phone_header" x="0" y="16500" width="20" height="20" style="fill:#525252"/><use xlink:href="#icon-phone_header" x="0" y="16530" width="20" height="20" style="fill:#000000"/><use xlink:href="#icon-schedule" x="0" y="16560" width="24" height="24" style="fill:#614EFD"/><use xlink:href="#icon-schedule" x="0" y="16594" width="24" height="24" style="fill:#FD8F3A"/><use xlink:href="#icon-schedule" x="0" y="16628" width="24" height="24" style="fill:#ffffff"/><use xlink:href="#icon-schedule" x="0" y="16662" width="24" height="24" style="fill:#525252"/><use xlink:href="#icon-schedule" x="0" y="16696" width="24" height="24" style="fill:#000000"/></svg>