<svg width="98" height="165" viewBox="0 0 98 165" fill="none" xmlns="http://www.w3.org/2000/svg">
<g filter="url(#filter0_d_123_381)">
<path d="M4.0078 13.946C3.75096 6.3209 9.86805 0 17.5041 0H28.0907V127.562H19.7049C13.0856 127.562 7.65815 122.319 7.43552 115.709L4.0078 13.946Z" fill="#01BFE2"/>
<path d="M49.5741 157C39.2473 157 34.2106 136.925 32.4863 128.035C32.0616 125.845 33.7623 123.883 35.9948 123.883H63.1535C65.386 123.883 67.0866 125.845 66.6619 128.035C64.9377 136.925 59.901 157 49.5741 157Z" fill="#01BFE2"/>
<path d="M20.2708 0H81.7234C88.7117 0 94.2904 5.82019 93.9883 12.7959L89.5263 115.827C89.2421 122.389 83.8343 127.562 77.2607 127.562C72.5866 127.562 68.1599 127.562 67.5345 127.562C66.1473 127.562 61.8505 155.16 54.0306 155.16C46.2107 155.16 42.3682 127.562 39.9128 127.562C36.3725 127.562 33.4285 127.562 30.9845 127.562C24.2045 127.562 20.2708 122.071 20.2708 115.297V0Z" fill="#3ADFFD"/>
<path d="M42.8223 20.8516C42.8223 17.4645 45.5705 14.7188 48.9605 14.7188C52.3505 14.7188 55.0986 17.4645 55.0986 20.8516V78.5C55.0986 81.8871 52.3505 84.6328 48.9605 84.6328C45.5705 84.6328 42.8223 81.8871 42.8223 78.5V20.8516Z" fill="white"/>
<path fill-rule="evenodd" clip-rule="evenodd" d="M47.8357 14.7188C47.7682 15.0831 47.7329 15.4587 47.7329 15.8426V73.491C47.7329 76.8781 50.481 79.6238 53.871 79.6238C54.2552 79.6238 54.6312 79.5885 54.9958 79.5211C54.4675 82.3714 51.9663 84.5301 48.9605 84.5301C45.5705 84.5301 42.8223 81.7843 42.8223 78.3973V20.7488C42.8223 17.7456 44.9829 15.2466 47.8357 14.7188Z" fill="#B9F4FF"/>
<path d="M55.0986 104.258C55.0986 108.322 52.3505 111.617 48.9605 111.617C45.5705 111.617 42.8223 108.322 42.8223 104.258C42.8223 100.193 45.5705 96.8984 48.9605 96.8984C52.3505 96.8984 55.0986 100.193 55.0986 104.258Z" fill="#B9F4FF"/>
<path fill-rule="evenodd" clip-rule="evenodd" d="M47.8004 97.0297C48.176 96.9437 48.5639 96.8984 48.9605 96.8984C52.3505 96.8984 55.0986 100.193 55.0986 104.258C55.0986 104.63 55.0756 104.996 55.0311 105.353C54.6555 105.439 54.2676 105.484 53.871 105.484C50.481 105.484 47.7328 102.189 47.7328 98.125C47.7328 97.7528 47.7559 97.3871 47.8004 97.0297Z" fill="white"/>
</g>
<defs>
<filter id="filter0_d_123_381" x="0" y="0" width="98" height="165" filterUnits="userSpaceOnUse" color-interpolation-filters="sRGB">
<feFlood flood-opacity="0" result="BackgroundImageFix"/>
<feColorMatrix in="SourceAlpha" type="matrix" values="0 0 0 0 0 0 0 0 0 0 0 0 0 0 0 0 0 0 127 0" result="hardAlpha"/>
<feOffset dy="4"/>
<feGaussianBlur stdDeviation="2"/>
<feComposite in2="hardAlpha" operator="out"/>
<feColorMatrix type="matrix" values="0 0 0 0 0 0 0 0 0 0 0 0 0 0 0 0 0 0 0.25 0"/>
<feBlend mode="normal" in2="BackgroundImageFix" result="effect1_dropShadow_123_381"/>
<feBlend mode="normal" in="SourceGraphic" in2="effect1_dropShadow_123_381" result="shape"/>
</filter>
</defs>
</svg>
